<svg xmlns="http://www.w3.org/2000/svg" viewBox="0 0 523.719 800"><defs><style>.cls-1{fill:#070600;}.cls-2{fill:#7f66ff;}.cls-3{fill:#c7d6ff;}.cls-12,.cls-13,.cls-16,.cls-17,.cls-20,.cls-21,.cls-22,.cls-23,.cls-24,.cls-25,.cls-26,.cls-27,.cls-30,.cls-34,.cls-35,.cls-36,.cls-4,.cls-8{fill:none;}.cls-4{stroke:#fff;}.cls-13,.cls-16,.cls-17,.cls-20,.cls-21,.cls-22,.cls-23,.cls-24,.cls-25,.cls-26,.cls-27,.cls-30,.cls-35,.cls-4,.cls-8{stroke-linecap:round;stroke-linejoin:round;}.cls-5{fill:#ffc8a1;}.cls-6{fill:#db5d1b;}.cls-7{fill:#ff6903;}.cls-8{stroke:#50010b;}.cls-9{fill:#068356;}.cls-10{fill:#ba3240;}.cls-11{fill:#ff8f0b;}.cls-12,.cls-16,.cls-34{stroke:#db5d1b;}.cls-12,.cls-34,.cls-36{stroke-miterlimit:10;}.cls-13,.cls-35{stroke:#063;}.cls-14{fill:#50010b;}.cls-15{fill:#ffaa0d;}.cls-17{stroke:#ba3240;}.cls-18{fill:#fff;}.cls-19{fill:#fe5f5a;}.cls-20{stroke:#fe5f5a;}.cls-21,.cls-23,.cls-25,.cls-26{stroke:#068356;}.cls-21{stroke-width:1.008px;}.cls-22,.cls-24,.cls-27{stroke:#7f66ff;}.cls-22{stroke-width:0.902px;}.cls-25,.cls-27{stroke-width:0.867px;}.cls-26{stroke-width:0.969px;}.cls-28{fill:#ffb380;}.cls-29{fill:#787c8b;}.cls-30{stroke:#070600;}.cls-31{fill:#ffb914;}.cls-32{fill:#1e41ff;}.cls-33{isolation:isolate;}.cls-34,.cls-35{stroke-width:1.088px;}.cls-36{stroke:#ffb914;}</style></defs><g id="Шар_3" data-name="Шар 3"><rect class="cls-1" width="523.719" height="806.835"/></g><g id="Шар_2" data-name="Шар 2"><circle class="cls-2" cx="447.254" cy="438.106" r="5.333"/><ellipse class="cls-3" cx="408.48" cy="481.642" rx="10.712" ry="3.604" transform="translate(-18.947 16.732) rotate(-2.293)"/><line class="cls-4" x1="407.11" y1="454.695" x2="408.48" y2="481.642"/><path class="cls-5" d="M435.577,542.559a40.9,40.9,0,0,1-17.247-5.3,22.83,22.83,0,0,1-4.861-3.3,23.262,23.262,0,0,1-4.072-5.507c-6.623-11.52-9.825-24.625-14.338-37.124a82.912,82.912,0,0,1-3.831-12.085,92.545,92.545,0,0,1-.993-22.123,8.164,8.164,0,0,1,3.148-5.908,33.509,33.509,0,0,1,7.57-4.616,4.827,4.827,0,0,1,3.632-.123c2.242.9,2.254,2.906,2.235,4.712a171.228,171.228,0,0,0,.675,17.144c1.006,11.2,5.269,23.184,14.874,29.954,4.759,3.354,10.661,4.777,16.477,5.051C437.589,516.244,436.835,529.643,435.577,542.559Z"/><path class="cls-5" d="M433.651,539.179c-2.334-4.3-2.591-9.4-2.644-14.3-.113-10.276.534-20.926,5.236-30.062,5.744-11.16,17.084-19.145,20.852-31.117a36.958,36.958,0,0,0,1.529-9.808c.11-3.134-.084-6.426-1.683-9.124-1.389-2.343-3.681-3.98-5.557-5.953-4.759-5-6.746-12.232-6.291-19.123s3.151-13.475,6.723-19.385c6.773-.2,13.947.028,20.332,2.3s12.163,7.562,12.954,14.292c.3,2.569-.128,8-.051,10.588.2,6.874,4.093,12.981,7.544,18.929,6.488,11.183,18.168,25.416,32.854,32.526l-1.015,124.532-62.179-1.166Z"/><path class="cls-6" d="M500.827,618.143c6.33-.857,24.284,6.819,29.416,35.648,9.061,50.9-20.852,68.895-20.852,68.895s-3.1,6.769-9.185,9.512-10.426,1.114-10.426,1.114a12.508,12.508,0,0,1-12.412,5.4c-8.5-1.2-10.3-6.427-10.3-6.427s-5.462,2.742-12.847-2.485-7.944-8.655-7.944-8.655-4.716.515-12.1-9-11.045-23.051-11.822-37.361,5.8-38.3,14.056-46.445S452.047,622,452.047,622a17.955,17.955,0,0,1,4.81-3.384,19.461,19.461,0,0,1,5.895-1.457,16.792,16.792,0,0,1,10.458-5.784A21.344,21.344,0,0,1,485,613.516a15.382,15.382,0,0,1,6.827-.429A14.628,14.628,0,0,1,500.827,618.143Z"/><path class="cls-7" d="M558.141,582.742c6.33-.857,24.285,6.819,29.417,35.647,9.061,50.9-20.852,68.9-20.852,68.9s-3.1,6.769-9.185,9.511-10.427,1.114-10.427,1.114a12.506,12.506,0,0,1-12.412,5.4c-8.5-1.2-10.3-6.427-10.3-6.427s-5.461,2.742-12.846-2.485-7.944-8.655-7.944-8.655-4.717.514-12.1-9-11.044-23.051-11.821-37.361,5.8-38.3,14.055-46.445,15.64-6.341,15.64-6.341a17.976,17.976,0,0,1,4.809-3.385,19.487,19.487,0,0,1,5.9-1.456,16.792,16.792,0,0,1,10.457-5.784,21.346,21.346,0,0,1,11.792,2.142,15.379,15.379,0,0,1,6.826-.429A14.628,14.628,0,0,1,558.141,582.742Z"/><path class="cls-8" d="M554.7,625.071a79.545,79.545,0,0,0-6.056-16.3c-2.657-4.908-6.262-9.031-10.531-10.7a10.7,10.7,0,0,0-12.456,3.615c-5.459,6.827-9.762,18.71-11.086,27.531"/><path class="cls-8" d="M519.128,595.031a25.087,25.087,0,0,0-4.157-5.58,9.913,9.913,0,0,0-5.364-2.881"/><path class="cls-8" d="M526.431,600.357c-2.9-4.179-7.36-5.946-11.491-4.986-11.784,2.738-17.808,19.614-19.066,23.187"/><path class="cls-9" d="M517.4,592.214a23.973,23.973,0,0,0,9.265-6.022,11.608,11.608,0,0,0,3.661-7.105c.393-5-3.41-9.119-3.313-14.147a10.928,10.928,0,0,1,4.537-8.409,7.806,7.806,0,0,1,1.634-3.163,8.384,8.384,0,0,1,3.193-1.572,3.9,3.9,0,0,0,2.531-2.837,5.639,5.639,0,0,0-.012-1.869,8.495,8.495,0,0,0-2.73-5.281,4.723,4.723,0,0,0-4.776-.887,5.183,5.183,0,0,1,5.839-.772,8.879,8.879,0,0,1,3.251,3.264,10.1,10.1,0,0,1,1.391,3.419,9.281,9.281,0,0,1-.772,5.668,7.506,7.506,0,0,1-3.627,3.552,10.328,10.328,0,0,1-1.141,3.117c-.571.868-1.5,1.4-2.289.964a3.138,3.138,0,0,1-.832,2.731c-.237.205-.507.334-.737.556a2.617,2.617,0,0,0-.592,2.258,1.66,1.66,0,0,0,.266.662,2.389,2.389,0,0,0,.7.516,2.727,2.727,0,0,1,1.017,1.417,9.18,9.18,0,0,0,.4,1.234,4.056,4.056,0,0,0,.661.834,7.32,7.32,0,0,1,1.324,3.35,7.456,7.456,0,0,1,2.342,3.042,14.073,14.073,0,0,0,1.186,2.578,12.63,12.63,0,0,0,1,1.08c1.315,1.43,2.007,3.666,3.048,5.477a10.167,10.167,0,0,0,3.367,3.617,9.725,9.725,0,0,1-2.559,5.433,13.791,13.791,0,0,0-3.183,4.746,12.706,12.706,0,0,0-15.329,1.171,5.326,5.326,0,0,0-2.233-3.213,15.624,15.624,0,0,0-5.147-2.64A6.689,6.689,0,0,0,517.4,592.214Z"/><path class="cls-10" d="M283.083,734.15c-.658,2.071,12.5-3.086,19.25-4.507a53.466,53.466,0,0,0,12.5-4.48s-10.25,10.74-12,16.4-2.75,8.41-1.5,9.16,5.5-5.641,10.75-11.07,15.75-15.793,15.75-15.793l27.25-12.309s-9.75,13.753-13.25,21.338-5.75,16.7-3.5,17.895,9.75-9.221,9.75-9.221.5,12.66,2.25,13.41,5.75-6.25,7.5-12.25,1.25-10.525,3-16.013,9.75-18.487,9.75-18.487-5.5,17.605-6.75,25.928.5,25.723,2.75,25.023,5.25-10.163,6-22.307a66.876,66.876,0,0,1,5.25-21.78s-2,17.45-2.5,22.918,1,14.306,1,14.306l30.5-40.76,5.5-39.828L408.3,646.477s-2.962,15.745-8.462,22.5-21.5,22.494-31.5,29-41.25,19.227-50.75,21.99-20,2.823-26.25,6.043S284.157,730.768,283.083,734.15Z"/><path class="cls-7" d="M427.416,543.806s8.667-6.75,11.167-6.209a46.2,46.2,0,0,1,19.125,8.125,56.249,56.249,0,0,1,14.542,14.917v14.333Z"/><path class="cls-11" d="M394.333,612.972a102.055,102.055,0,0,1-21-20.25c-9-12-18.25-31.25-18.25-31.25l4-7s7.25,12,9,12.25,1-9.176,1-9.176h3.5l-4.25-4.574-2.5-5.25,6.5-1.5s3,3.875,3.875,4,.75-3.375.75-3.375l3-.625,1.625,2.75,2.625-.25-.375-1.875,4.375-3.75s3,3.125,3.875,3.375,2.25-1.25,2.25-1.25V541.1l2-2.125s1.75,3.875,2.875,3.875,2.25-3.875,2.25-3.875l1.625-1.375s3.375,6.125,4.25,6.125,1.625-1.375,1.625-1.375l-.75-2.125,1.75-1s3,2.25,3.5,2,3.625-1.125,3.625-1.125,23.157,4.171,42.125,19.25c39.125,31.1,36.75,64.5,35.875,68.875a28.234,28.234,0,0,1-2.625,7.5l1.875,4.625-2.125,2.875-1.875-1.25-.25,3.5h-3.25l-2.375-3.375-1-2.875-1.25,3.375-2,.5-3.125-1.75-1.75,1.125,1.375,6.75-2.25,2.25-3.542-3.333-1.416,1.167.916,2.833-2.166.333-5.792-8,3.5,8a38.718,38.718,0,0,1-6.375.875c-1.625-.125-5.5.011-5.5.011l-5-4.636-3,.75s-.5,2-1.25,2a3.982,3.982,0,0,0-1.625.5Z"/><path class="cls-5" d="M392.836,422.087s1.565,32.7,13.182,32.686c13.754-.013,12.91-33.335,12.91-33.335Z"/><ellipse class="cls-3" cx="405.81" cy="421.818" rx="13.074" ry="3.604" transform="translate(-16.555 16.577) rotate(-2.293)"/><path class="cls-10" d="M416.81,433.672c-.778,8.192-3.171,19.32-10.439,19.327-5.417.006-8.22-8.491-9.64-16.012a22.174,22.174,0,0,1-.509-3.119c-.037-1.942,2.939-2.279,4.9-1.738,2.6.718,5.1,4.594,8.358,4.716A9.765,9.765,0,0,0,416.81,433.672Z"/><path class="cls-11" d="M534.6,693.26c6.331-.857,24.285,6.818,29.417,35.647,9.061,50.9-20.852,68.895-20.852,68.895s-3.1,6.77-9.185,9.512-10.426,1.114-10.426,1.114a12.508,12.508,0,0,1-12.412,5.4c-8.5-1.2-10.3-6.426-10.3-6.426s-5.462,2.742-12.847-2.485-7.944-8.655-7.944-8.655-4.716.514-12.1-9S456.9,764.211,456.124,749.9s5.8-38.3,14.056-46.444,15.639-6.341,15.639-6.341a17.946,17.946,0,0,1,4.81-3.385,19.461,19.461,0,0,1,5.895-1.457,16.792,16.792,0,0,1,10.458-5.784,21.355,21.355,0,0,1,11.791,2.142,15.374,15.374,0,0,1,6.827-.428A14.619,14.619,0,0,1,534.6,693.26Z"/><path class="cls-12" d="M534.554,693.352c-2.078.293-4.016,1.531-5.909,2.751a16.969,16.969,0,0,0-2.527,1.863,20.717,20.717,0,0,0-4.2,6.793"/><path class="cls-12" d="M552.3,731.727a61.993,61.993,0,0,0-10.184-21.733,24.492,24.492,0,0,0-3.466-3.849,13.9,13.9,0,0,0-10.072-3.338,12.64,12.64,0,0,0-10.632,6.906"/><path class="cls-12" d="M531.162,735.589a79.634,79.634,0,0,0-6.056-16.3c-2.658-4.907-6.263-9.031-10.532-10.7a10.7,10.7,0,0,0-12.456,3.615c-5.459,6.828-9.762,18.71-11.086,27.532"/><path class="cls-12" d="M495.586,705.548a25.106,25.106,0,0,0-4.158-5.579,9.909,9.909,0,0,0-5.363-2.882"/><path class="cls-12" d="M502.888,710.875c-2.9-4.179-7.36-5.947-11.491-4.987-11.784,2.739-17.808,19.614-19.066,23.187"/><path class="cls-9" d="M493.854,702.732a23.977,23.977,0,0,0,9.265-6.022,11.608,11.608,0,0,0,3.661-7.106c.393-5-3.41-9.119-3.313-14.146A10.924,10.924,0,0,1,508,667.049a7.823,7.823,0,0,1,1.634-3.164,8.365,8.365,0,0,1,3.194-1.571,3.906,3.906,0,0,0,2.531-2.837,5.672,5.672,0,0,0-.013-1.87,8.5,8.5,0,0,0-2.729-5.281,4.725,4.725,0,0,0-4.777-.886,5.181,5.181,0,0,1,5.839-.772,8.871,8.871,0,0,1,3.251,3.264,10.048,10.048,0,0,1,1.391,3.419,9.285,9.285,0,0,1-.771,5.667,7.507,7.507,0,0,1-3.628,3.552,10.324,10.324,0,0,1-1.141,3.118c-.571.868-1.5,1.4-2.289.963a3.144,3.144,0,0,1-.831,2.732c-.238.2-.508.334-.737.556a2.611,2.611,0,0,0-.592,2.257,1.639,1.639,0,0,0,.265.662,2.384,2.384,0,0,0,.7.517,2.738,2.738,0,0,1,1.017,1.417,9.224,9.224,0,0,0,.4,1.234,4.077,4.077,0,0,0,.661.833,7.336,7.336,0,0,1,1.325,3.35,7.473,7.473,0,0,1,2.342,3.042,14.007,14.007,0,0,0,1.186,2.578,12.317,12.317,0,0,0,1,1.08c1.315,1.43,2.008,3.667,3.048,5.478A10.164,10.164,0,0,0,523.651,700a9.722,9.722,0,0,1-2.559,5.433,13.809,13.809,0,0,0-3.183,4.747,12.706,12.706,0,0,0-15.329,1.17,5.326,5.326,0,0,0-2.233-3.213,15.615,15.615,0,0,0-5.147-2.64A6.691,6.691,0,0,0,493.854,702.732Z"/><path class="cls-13" d="M520.608,705.92A19.678,19.678,0,0,1,516.38,693.2c.014-1.44.075-3.166-.78-3.99"/><path class="cls-13" d="M512.372,684.163a29.059,29.059,0,0,1,1.217,11.592,69.033,69.033,0,0,1-2.091,11.482"/><path class="cls-13" d="M510.52,679.2c.439,11.006-2.682,22.192-8.357,29.946"/><path class="cls-13" d="M508.292,676.632a21.77,21.77,0,0,1-1.609,14.24"/><path class="cls-7" d="M459.583,629.306s4-24.88-30.25-43.834c-26.941-14.909-40.25,3.75-40.25,3.75s19.151-9.493,43,7.25c25.65,18.009,27.643,34.167,27.643,34.167"/><path class="cls-14" d="M443.664,595.478s-9.414,12.828-10.081,39.328,2.414,35.833,5.04,40.166,18.293,37.667,31.293,69.334a295.3,295.3,0,0,1,17.334,58.867H366.583s2-38.525,8.333-50.863,20.667-31.181,24.667-40.76,9.333-26.244,8.667-35.911.333-39.333.333-39.333l-9.25-31.139,2.738-18.607Z"/><ellipse class="cls-11" cx="430.77" cy="756.881" rx="37.813" ry="40.476"/><ellipse class="cls-15" cx="437.217" cy="756.852" rx="31.366" ry="35.12"/><ellipse class="cls-3" cx="341.14" cy="705.79" rx="31.867" ry="21.644" transform="translate(-307.191 265.128) rotate(-30)"/><path class="cls-11" d="M311.25,704.139c.666,1,45-24.667,45-24.667s-6.941-3.333-8.554-3.833-4.113,2.5-5.446,2.333-2-4.166-2-4.166l-3-1.5Z"/><path class="cls-15" d="M314.583,711.55s5.333-3.078,6.833-2.744a2.078,2.078,0,0,1,.324.1,3,3,0,0,1,.953,4.76l-3.11,3.483,2.5,4.582,40.833-23.593-1.5-5.168s-2.833,3-5.166,2.668-3.23-2.917-2-4.167c1.559-1.586,6.166-1.333,6.166-1.333l-4.166-10.667-45,24.667Z"/><path class="cls-15" d="M355.083,702.665s-1.5-7.068-5.734-4.026c-4.725,3.395.966,6.78.966,6.78"/><path class="cls-3" d="M331.9,716.059s-3.681-4.186,1.558-6.774c5.187-2.563,7.682,1.436,7.682,1.436"/><path class="cls-16" d="M355.083,577.806s2,5.166,5.5,7a93.219,93.219,0,0,0,10,4.049"/><path class="cls-16" d="M355.083,588.855s3,4.284,7.75,5.284a80.382,80.382,0,0,0,12.416,1.064"/><path class="cls-17" d="M379.583,759.193s-5.5,10.279-4.25,12.029,5.5-6.529,7.75-6.014-1.25,6.514,2,7.764,4-1.25,4-1.25"/><path class="cls-17" d="M384.333,781.972s.25,3.5,2.5,3.5,3.25-1.5,4-1.75a5.653,5.653,0,0,1,2.125,0"/><path class="cls-8" d="M391.833,704.167s-1.25,6.68-1.625,11.18,0,12.353,0,12.353"/><path class="cls-10" d="M430.583,684.472s.833,16,3,21,6.333,13,6.333,13-11.333,9.834-15,17.5-7.5,24.167-3,41.167,21.748,26.034,21.748,26.034-9.914-14.534-10.748-22.7a117.02,117.02,0,0,1,.167-18.833s5,17,13.167,23.333a53.382,53.382,0,0,0,16.833,8.667s-8.833-10.333-10.5-13.833-4.5-16.667-4.5-16.667a44.858,44.858,0,0,0,12,10.167c7.167,4,9.5,5.333,10.833,2.833s.5-6.167-2.166-8.667a76.775,76.775,0,0,1-11.834-12.666,43.5,43.5,0,0,1-6.666-15.167s8.333,12.333,14.5,17.167,10.56,7.48,12.113,6.24.989-5.652-4.229-11.863a92.441,92.441,0,0,1-9.051-13.211s13.333,14.167,15.667,13,2.166-7.666-2.667-14.166-13.333-17.167-13.333-17.167,11,10,12,9.167-4-13.167-12.5-24.834-25.409-32.861-25.409-32.861Z"/><path class="cls-8" d="M432.5,748.472l.583,13.167s-1.466,14.582,0,19.954a69.213,69.213,0,0,0,10.581,21.58"/><path class="cls-8" d="M440.083,748.472a83.515,83.515,0,0,0,3.083,8.917c1.25,2.583,4.917,5.75,4.917,5.75s1.749,12.474,4.5,16.667,10.5,13.833,10.5,13.833"/><path class="cls-5" d="M399.412,477.863a12.414,12.414,0,0,1,2.559-11.214,29.954,29.954,0,0,1,5.8-7.2c3.784-3.1,8.793-4.141,13.589-5.089.474.443,1.368-.733,1.351-1.381a1.914,1.914,0,0,0-1.133-1.47,8.515,8.515,0,0,0-4.81-.718,25.713,25.713,0,0,0-23.526,22.565c1.052-6.618,1.646-14.747,6.774-19.061,7.961-6.7,11.7-6.321,19.99-8.767a.909.909,0,0,0,.562-.468,1.023,1.023,0,0,0-.242-.992c-2.1-2.816-7.55-2.714-10.562-1.935a30.868,30.868,0,0,0-12.411,6.515"/><ellipse class="cls-18" cx="470.645" cy="413.958" rx="5.563" ry="6.735" transform="translate(-84.228 122.439) rotate(-13.617)"/><ellipse class="cls-18" cx="452.889" cy="425.221" rx="5.563" ry="6.735"/><path class="cls-5" d="M447.424,426.483a8.874,8.874,0,0,1-.1-1.317c0-3.881,2.49-7.027,5.562-7.027a5.247,5.247,0,0,1,4.394,2.717C453.145,419.038,448.264,426.309,447.424,426.483Z"/><path class="cls-5" d="M464.721,415.192a8.873,8.873,0,0,1-.1-1.317c0-3.881,2.491-7.027,5.563-7.027a5.248,5.248,0,0,1,4.393,2.717C470.442,407.747,465.561,415.018,464.721,415.192Z"/><ellipse class="cls-14" cx="454.796" cy="425.221" rx="2.781" ry="3.368"/><ellipse class="cls-14" cx="470.645" cy="413.958" rx="2.781" ry="3.368"/><path class="cls-2" d="M445.458,393.1a18.628,18.628,0,0,0-7.5,13.375,28.577,28.577,0,0,0,1.625,13.625c1.41,3.661,7.174,11.231,7.174,11.231s-3.061-9.885.57-17.37,5.562-8.861,5.562-8.861a136.265,136.265,0,0,1,14.444-.75c12,.159,17.451,10.845,17.451,10.845s.576-7.72,0-9.47-5.826-8.375-10.326-11.375-13.753-6.721-17.875-5.75S445.458,393.1,445.458,393.1Z"/><path class="cls-19" d="M461.66,455.03a13.887,13.887,0,0,0,.029,3.99,13.251,13.251,0,0,0,2,4.289,49.623,49.623,0,0,0,6.655,8.814,1.6,1.6,0,0,0,1.056.6c.5,0,.868-.447,1.137-.869,2.417-3.79,2.241-8.656,1.725-13.135a8.829,8.829,0,0,0-1.17-4.046c-.929-1.359-2.5-2.1-3.7-3.217-2.126-1.988-2.924-5.034-3.246-7.944-.295-2.706.015-6.15-1.178-8.636-1.693.179-1.6,1.116-1.741,2.645q-.261,2.945-.525,5.887Z"/><path class="cls-19" d="M493.064,462.151a2.051,2.051,0,0,1-3.343,1.456,8.033,8.033,0,0,1-2-2.386,16.268,16.268,0,0,1-1.634-6.327,39,39,0,0,0-.879-6.512c-1.483-5.431-5.97-9.5-10.634-12.653.407-.049.057-1.15.1-1.558a1.218,1.218,0,0,1,1.046-.981,2.924,2.924,0,0,1,1.618.323,11.747,11.747,0,0,1,2.745,1.728c2.917,2.416,5.868,4.8,8.586,7.444a10.213,10.213,0,0,1,3.665,6.952A52.657,52.657,0,0,1,493.064,462.151Z"/><path class="cls-20" d="M486.024,474.331a38.327,38.327,0,0,0,.985,9.062,2.626,2.626,0,0,0,.48,1.154.941.941,0,0,0,1.129.281,1.364,1.364,0,0,0,.507-.778,27.725,27.725,0,0,0,1.282-5.282l.745,2.306a1.25,1.25,0,0,0,.585.853c.619.253,1.134-.538,1.3-1.185a14.573,14.573,0,0,0,.463-3.009c.647.636.924,1.738,1.8,1.958a1.53,1.53,0,0,0,1.567-.748,4.175,4.175,0,0,0,.51-1.768c.387-3.122.342-6.482-1.3-9.163"/><path class="cls-20" d="M456.382,472.488c-1.046,4.093-2.1,8.27-1.824,12.485l4.675-5.575c.209-.25.5-.527.814-.424q.019,3.729.368,7.447c.041.443.19,1,.631,1.054a.98.98,0,0,0,.751-.388,14.259,14.259,0,0,0,2.663-3.75.891.891,0,0,1,.255-.361.6.6,0,0,1,.779.2,1.784,1.784,0,0,1,.257.842c.287,2.159.858,4.538,2.683,5.726"/><path class="cls-20" d="M450.875,495.869a19.177,19.177,0,0,0-3.219,8.647c-.02.281.065.668.347.659a.513.513,0,0,0,.291-.148,20.093,20.093,0,0,0,4.152-4.688"/><path class="cls-20" d="M507.469,533.748a41.488,41.488,0,0,0,1.848,6.17c.167.431.525.95.959.791.261-.1.373-.4.452-.665q.45-1.525.842-3.068l1.043,3.57a4.557,4.557,0,0,0,2.474-2.572"/><path class="cls-17" d="M374.285,792.784a41.465,41.465,0,0,0,1.848,6.171c.167.431.525.95.959.791.262-.1.373-.4.452-.665q.45-1.526.842-3.068l1.043,3.57a4.56,4.56,0,0,0,2.474-2.572"/><path class="cls-20" d="M479.267,542.13l2.064,5.014a2.106,2.106,0,0,0,.944,1.248c.77.33,1.6-.351,2.027-1.075s.72-1.593,1.442-2.017l2.6,3.343c.524.674,1.249,1.426,2.081,1.23,1.2-.284,1.132-2.044,1.881-3.024a2.936,2.936,0,0,0,3.022,1.846"/><path class="cls-20" d="M499.838,567.929c1.255.538,1.053,2.735,2.334,3.207,1.059.391,2.037-.8,2.329-1.889s.383-2.374,1.286-3.051q1.695,3.18,3.151,6.479"/><path class="cls-13" d="M357.553,624.232a14.248,14.248,0,0,1,.773,5.335c-.019.4-.145.911-.545.976-.379.061-.662-.345-.781-.71-.56-1.717.074-3.972-1.328-5.108-1.233.423-1.64,1.951-1.719,3.252s-.079,2.768-1.017,3.673l.383-4.135a.778.778,0,0,0-.1-.579.674.674,0,0,0-.78-.061c-1.14.493-1.654,1.795-2.056,2.97l-1.736,5.071a3.966,3.966,0,0,1-1.809,2.6c-.67-.556-.454-1.629-.091-2.421s.818-1.7.446-2.482c-3.3,2.6-4.469,7.379-8.046,9.584-.433.267-1.173.377-1.3-.116a.856.856,0,0,1,.106-.539,21.671,21.671,0,0,1,6.886-8.556c.872-.071.818-.874.722-1.743a8.046,8.046,0,0,0-3.616,1.614,8.943,8.943,0,0,1,4.521-3.657c1.258-.454,2.68-.657,3.653-1.576a8,8,0,0,0-2.287-.182c.033-.547.558-.913,1.028-1.194l3.584-2.14a10.571,10.571,0,0,1,1.769-.912C355.051,622.89,356.675,624.1,357.553,624.232Z"/><path class="cls-16" d="M363.607,585.449a11.152,11.152,0,0,1-3.012-5.729"/><circle class="cls-18" cx="446.958" cy="401.964" r="2.542"/><circle class="cls-18" cx="440.204" cy="412.305" r="2.421"/><circle class="cls-18" cx="477.121" cy="401.964" r="2.542"/><path class="cls-15" d="M460.684,416.585c2.657-.719,4.109,3.911,8.42,5.962a30.18,30.18,0,0,1,8.544,5.973s-1.359,12.283-2.354,12.693-13.082-4.544-13.742-5.832-.1-8.324-.586-9.91C460.01,422.362,458.283,417.235,460.684,416.585Z"/><circle class="cls-18" cx="467.764" cy="393.792" r="2.347"/><path class="cls-21" d="M469.144,246.626c1.264-1.689,3.938-5.092,5.878-5.34s3.92.661,4.077,2.5c.26,3.038-1.276,9.262.8,11.186,2.072,1.113,7.347-7.3,13.074-11.778a2.3,2.3,0,0,1,3.6,1.1,3.718,3.718,0,0,0,1.637,2.1,5.794,5.794,0,0,1,1.691,1.054,3.634,3.634,0,0,1,.556,2.086l.625,9.592c2.448-1.4,5.4-3.695,4.963-6.083-.121-.657-.5-1.3-.178-1.986.726-1.537,3.133-.54,4.5-1.653,1.964-1.6-.74-4.942,1.337-6.377a4.05,4.05,0,0,1,3.131,3.514l5.249-4.124-.127-3.245c1.138,2.7,5.523,2.936,8.081.441a4.459,4.459,0,0,1-3.611-4.062,6.794,6.794,0,0,0-.235-1.986c-.345-.83-1.293-1.466-.945-2.444.193-.544.744-.967.965-1.506.408-.993-.549-1.8-1.557-1.753a11.578,11.578,0,0,0-3.039.958c-4.318,1.5-8.085-.888-11.175-3.185a2.019,2.019,0,0,1-1.061-1.556,3.083,3.083,0,0,1,.651-1.528,27.549,27.549,0,0,1,6.377-6.687,7.384,7.384,0,0,0,2.673-2.71c.929-2.262-1.507-4.041-.894-6.343a5.858,5.858,0,0,0-4.006,2.348c-.592-1.714.678-3.851,1.129-5.827s-1-4.327-2.833-3.17c-2.125,1.338-.67,4.663-2.446,6.474-1.459,1.487-3.589.635-5-.286s-3.689-1.607-5,0c-1.19,1.463-.219,3.2.7,4.416s1.6,3.231.147,4.45c-2.282-1.039-3.141-3.671-4.782-5.481-3.959-4.364-13.169-2.655-17.456,3.24,2.05,3.064,9.354.261,10.02,4.091-1.166,1.52-3.643-.248-4.973,1.147a3.858,3.858,0,0,0-.718,1.775c-.989,3.554-5.253,5.5-8.76,7.051s-11.586,4.95-11.176,8.313c.074.61,4.221.835,4.148,1.478a4.326,4.326,0,0,1-.87,1.881c-1.934,2.739-9.057,18.54-6.435,21.446C460.278,262.826,465.508,251.482,469.144,246.626Z"/><path class="cls-21" d="M499.954,247.628a34,34,0,0,0-7.627,9.734,16.555,16.555,0,0,0-1.227,12.076"/><path class="cls-21" d="M522.728,221.772a204.417,204.417,0,0,1-29.9,7.829c-8.744,1.594-18.359,3.009-24.32,9.6"/><path class="cls-21" d="M505.176,242.592c.845-5.961,1.233-10.48,2.684-16.323-4.067-1.789-7.9-5.171-11.825-7.261"/><circle class="cls-2" cx="492.592" cy="276.491" r="7.216"/><circle class="cls-22" cx="505.537" cy="269.275" r="5.729"/><circle class="cls-2" cx="486.863" cy="289.296" r="5.729"/><circle class="cls-2" cx="511.266" cy="281.31" r="5.729"/><circle class="cls-2" cx="492.592" cy="315.556" r="5.009"/><circle class="cls-2" cx="501.544" cy="299.993" r="5.476"/><circle class="cls-22" cx="479.9" cy="273.613" r="5.476"/><circle class="cls-22" cx="501.544" cy="326.636" r="3.993"/><circle class="cls-22" cx="501.544" cy="289.296" r="4.627"/><circle class="cls-22" cx="492.592" cy="303.986" r="4.483"/><circle class="cls-22" cx="483.101" cy="299.504" r="4.483"/><path class="cls-23" d="M428.346-5.049A66.738,66.738,0,0,1,441.173,5.425c2.088,2.19,4.111,4.707,4.483,7.709.567,4.566-2.743,8.559-5.141,12.485s-3.689,9.736-.077,12.585"/><path class="cls-23" d="M441.792,23.61c.786,2.681-1.175,4.565.147,7.025.962,1.79,3.194,2.459,5.22,2.605s4.137-.048,6.02.714,5.224,2.972,4.349,4.806"/><circle class="cls-24" cx="438.554" cy="64.666" r="8"/><circle class="cls-2" cx="461.23" cy="68.928" r="6.351"/><circle class="cls-24" cx="452.552" cy="50.315" r="6.351"/><circle class="cls-2" cx="438.952" cy="44.613" r="6.351"/><circle class="cls-2" cx="445.876" cy="92.863" r="4.018"/><circle class="cls-2" cx="461.956" cy="42.332" r="5.495"/><circle class="cls-2" cx="451.331" cy="77.796" r="5.13"/><circle class="cls-2" cx="451.331" cy="62.318" r="4.427"/><circle class="cls-24" cx="461.956" cy="55.202" r="4.427"/><circle class="cls-24" cx="429.554" cy="52.797" r="4.97"/><path class="cls-25" d="M111.513,326.709a10.635,10.635,0,0,0-2.025-4.446c-1.107-1.216-3.048-1.843-4.435-.96-2.294,1.459-2.207,6.1-4.921,5.956a41.567,41.567,0,0,0-4.739-17.275,4.529,4.529,0,0,1-4.772,2.009,6.686,6.686,0,0,0-1.852-.389,3.82,3.82,0,0,0-1.823.791l-7.112,4.719c-.635-2.111-.982-4.972.973-5.99.538-.28,1.239-.405,1.5-.95.594-1.218-1.691-2.038-1.813-3.387-.175-1.947,3.94-2.2,3.572-4.118a4.691,4.691,0,0,0-4.52.106l-.584-5.115,2.35-1.644a4.6,4.6,0,0,1-5.64-4.286,5.152,5.152,0,0,0,5.22-.127,6.642,6.642,0,0,1,1.542-.919c.807-.245,1.877-.051,2.331-.762.252-.4.184-.927.415-1.336.424-.753,1.617-.641,2.252-.055a8.308,8.308,0,0,1,1.335,2.206c1.8,3.207,5.956,4.052,9.6,4.566a2.341,2.341,0,0,0,1.787-.228,2.183,2.183,0,0,0,.637-1.172,17.072,17.072,0,0,0,.462-7.1,4.605,4.605,0,0,1,.129-2.927c.967-1.716,3.817-1.293,5.02-2.852a3.838,3.838,0,0,1,1,3.481c1.588-.575,2.242-2.414,3.325-3.711s3.678-1.73,4.083-.09c.468,1.9-2.815,2.838-2.907,4.788-.076,1.6,1.925,2.343,3.5,2.646s3.556,1.214,3.3,2.8c-.236,1.439-2.092,1.815-3.544,1.944s-3.31.815-3.2,2.27c2.232.727,4.637-.184,6.984-.222,5.66-.092,10.544,5.962,9.256,11.474-3.493.473-6.355-5.093-9.47-3.442-.292,1.455,2.578,1.907,2.481,3.388a2.738,2.738,0,0,1-.766,1.339c-1.829,2.431-.373,5.842.856,8.625s1.846,6.726-.773,8.274a7.391,7.391,0,0,0-1.427.83,2.994,2.994,0,0,0-.74,1.48c-.637,2.529,2.669,14.757-1.09,14.827C113.815,341.785,112.192,329.141,111.513,326.709Z"/><path class="cls-25" d="M-.031,205.89c6.17-.825,11.853,4.122,14.355,9.821s2.7,12.093,3.625,18.248a75.241,75.241,0,0,0,5.092,18.059c1.691,4,4.051,8.153,8.084,9.759,1.9.755,4.016.873,5.854,1.759,5.622,2.709,5.844,10.592,9.366,15.743,4.419,6.465,13.43,7.82,19.34,12.958,8.391,7.294,8.614,20.2,6.642,31.139"/><path class="cls-25" d="M92.824,279.849c-7.458,4.27-18.1,1.512-22.54-5.844a1.876,1.876,0,0,1-.358-1.027,1.34,1.34,0,0,1,1.628-1.047,3.326,3.326,0,0,1,1.76,1.24,15.235,15.235,0,0,1,3.012,5.447,4.418,4.418,0,0,1,0,3.348c-.86,1.612-3.084,1.824-4.889,1.546a17.619,17.619,0,0,1-7.825-3.286c-1.576-1.179-2.958-3.624-1.466-4.908,2.384,1.522,1.8,5.665-.7,6.994s-5.8.127-7.484-2.146c-2.578-3.483-6.633-8.133-10.964-8.26"/><path class="cls-25" d="M26.858,258.6c5.5,3.641,6.708,10.176,7.779,16.688.427,2.6.606,5.525-1.036,7.578-1.7,2.125-4.844,2.637-6.58,4.732a11.577,11.577,0,0,0-2.809,6.92"/><path class="cls-25" d="M31.477,263.809c.718,2.276-1.673,7.865-3.967,8.521s-4.742.026-7.018-.693-4.62-1.538-6.989-1.247a3.368,3.368,0,0,0-1.979.8c-1.607,1.565-.01,4.21,1.559,5.812s3.169,4.244,1.566,5.813c-1.749,1.712-5.459-.149-6.8,1.9-1.123,1.707.551,4.824-1.313,5.662"/><path class="cls-26" d="M111.456,317.937c-3.913-11.157-8.564-23.234-18.807-29.138-9.464-5.455-20.393-4.447-30.1.561"/><path class="cls-26" d="M33.6,282.869c.12,2.622,3.757,1.655,6.531,3.192a15.644,15.644,0,0,1,4.914,5.128"/><path class="cls-26" d="M73.351,313.444c2.746.641,4.725,3.185,6.4,5.456"/><path class="cls-26" d="M87.587,307.113c2.4-5.241,7.763-8.368,12.806-11.161,4.83.466,10.321.664,14.989,1.989"/><circle class="cls-2" cx="81.678" cy="325.945" r="6.934"/><circle class="cls-27" cx="73.016" cy="335.35" r="5.505"/><circle class="cls-27" cx="67.511" cy="325.945" r="5.505"/><circle class="cls-27" cx="90.913" cy="336.954" r="5.505"/><circle class="cls-2" cx="76.174" cy="344.691" r="5.505"/><circle class="cls-27" cx="83.107" cy="361.96" r="5.505"/><circle class="cls-2" cx="75.397" cy="354.258" r="5.505"/><circle class="cls-27" cx="66.856" cy="358.565" r="4.307"/><circle class="cls-2" cx="78.879" cy="376.567" r="3.482"/><circle class="cls-2" cx="87.004" cy="345.977" r="5.261"/><circle class="cls-27" cx="75.46" cy="385.034" r="3.837"/><circle class="cls-27" cx="65.01" cy="345.3" r="4.446"/><circle class="cls-27" cx="95.22" cy="353.148" r="4.307"/><circle class="cls-2" cx="73.016" cy="368.778" r="4.307"/><circle class="cls-2" cx="35.221" cy="298.123" r="6.934"/><circle class="cls-2" cx="28.287" cy="309.607" r="6.934"/><circle class="cls-2" cx="29.716" cy="323.603" r="5.505"/><circle class="cls-27" cx="21.353" cy="299.552" r="5.505"/><circle class="cls-27" cx="40.725" cy="309.607" r="5.505"/><circle class="cls-27" cx="48.111" cy="292.842" r="3.482"/><circle class="cls-27" cx="15.849" cy="309.607" r="3.837"/><circle class="cls-27" cx="26.858" cy="334.613" r="3.837"/><circle class="cls-27" cx="46.23" cy="301.96" r="3.837"/><path class="cls-25" d="M28.289,286.2c.516,1.036,1.789,1.375,2.808,1.922a6.065,6.065,0,0,1,2.475,2.48"/><path class="cls-20" d="M420.565,445.058c-.732,2.164-9.325.1-16.029,5.872s-7.668,6.112-8.736,9.816-2.561,12.608-2.561,12.608"/><path class="cls-20" d="M422.708,452.977s.436.8-3.77,1.875-8.467,2.291-12.036,5.362a27.93,27.93,0,0,0-6.467,8.963c-.727,1.554-.665,9.295-.665,9.295"/><path class="cls-20" d="M407.974,492.972s6.478,15.667,11.21,20.5,12.732,7.667,12.732,7.667"/><path class="cls-20" d="M449.4,477.092s-11.7,13.635-14.512,20.674-3.64,30.373-2.974,33.206,2.488,8.093,2.488,8.093"/><path class="cls-20" d="M446.458,471.472a4.465,4.465,0,0,0,5,0c4.875-3.3,6.675-12.266,6.675-12.266"/><path class="cls-20" d="M498.1,454.7s7.815,7.611,11.482,8.611,7.814-.667,7.814-.667"/><path class="cls-20" d="M492.6,446.414s8.488,5.308,10.238,5.308,4.916-1.625,4.916-1.625"/><path class="cls-20" d="M487.3,509.825s4.353,10.814,2.819,11.981-4.1-5.991-4.1-5.991,1.475,9.324-.982,8.824-2.124-2-2.124-2"/><path class="cls-20" d="M485.319,430.225s7.841,22,21.24,34.783c12.664,12.084,18.89,13.932,18.89,13.932"/><path class="cls-20" d="M485.319,422.6s.514,5.88-.986,7.628-2.625,1.731-2.625,1.731"/><path class="cls-20" d="M447.539,433.167s4.756,9.868,9.544,10.272a8.154,8.154,0,0,0,5.172-1.781"/><path class="cls-8" d="M448.888,397.393s1.08,7.979,4,7.7,13.72-1.471,17.756-.423c11.063,2.872,14.139,10.518,14.139,10.518"/><path class="cls-2" d="M451.521,391.444,451.285,383a25.46,25.46,0,0,1,.037-3.039,12.853,12.853,0,0,1,5.554-9.348c4.858-3.259,11.463-2.877,16.375-6.054-1.931,4.576-1.617,9.949-1.157,14.9.145,1.551.493,3.237-.2,4.631C470.645,386.6,462.255,391.458,451.521,391.444Z"/><circle class="cls-18" cx="459.916" cy="384.644" r="2.339"/><ellipse class="cls-18" cx="469.879" cy="382.113" rx="2.015" ry="1.974"/><circle class="cls-18" cx="456.017" cy="375.073" r="2.434"/><path class="cls-2" d="M451.889,391.486a56.516,56.516,0,0,1-6.484-3.966c-1.81-1.282-3.584-2.854-5.8-2.7a16.481,16.481,0,0,0-6.484,1.834c-3.783,1.98-6.643,5.338-10.143,7.783a24.592,24.592,0,0,1-12.26,4.345c4.65,3.608,11.044,4.481,16.883,3.746s11.358-3.021,16.739-5.405C446.493,396.17,451.517,392.2,451.889,391.486Z"/><circle class="cls-18" cx="425.474" cy="396.93" r="2.492"/><circle class="cls-18" cx="442.625" cy="388.014" r="2.375"/><circle class="cls-18" cx="436.806" cy="398.195" r="2.056"/><path class="cls-8" d="M410.721,398.782s8.907,7.027,23.246,2.365,17.922-9.661,17.922-9.661,9.315-.243,13.984-3.046"/><rect class="cls-2" x="447.603" y="389.976" width="8.881" height="7.625" rx="2.582" transform="translate(-108.649 181.569) rotate(-20.329)"/><path class="cls-8" d="M447.737,394.946s-.279,4.837,5.846,2.338"/><path class="cls-8" d="M445.7,419.859s-.619,6.112,0,7.926,1.551,4.987,1.551,4.987"/><path class="cls-8" d="M448.583,732.472s2.793,13.532,6.393,19.345c5.774,9.322,14.877,16.586,15.442,17.745"/><path class="cls-8" d="M458.854,727.7s5.03,12.089,9.729,18.182,7.691,9.532,8.762,13.311-.482,3.853-.482,3.853"/><path class="cls-8" d="M457.333,706.722s5.548,12.311,11.25,19.674,9.712,12.236,10.684,14.981"/><path class="cls-8" d="M380.083,710.722a52.546,52.546,0,0,0-6.825,20.163c-1.141,11.111-2.508,28.322-6.675,28.288"/><path class="cls-8" d="M355.083,726s-3.929,11.627-7,15.56-7.5,10.031-9.75,9.221"/><path class="cls-5" d="M405.083,579.7c-2.642.933-7.5,7.233-8.75,10.755s-.5,16.537,4.375,26.146,6.375,15.5,6.75,19.375a133.991,133.991,0,0,1,0,17.386c-.375,5.281-5.689,17.614-5.689,17.614l5.965-5.416s-.818,9.583-3.651,15.916-5.333,12-5.333,12,5.25-3.416,6.416-5.333,2.652-4.705,2.652-4.705-1.9,9.445-2.646,11.993-3.964,7.408-3.964,7.408,4.111-2.046,6-4.863,5.125-7.25,5.125-7.25a48.108,48.108,0,0,1-.917,8.25c-.833,3.667-2.666,9.834-2.666,9.834a28.532,28.532,0,0,0,7.333-11.667,84.631,84.631,0,0,0,2.667-12.667s2,7.122,2.166,10.395,3,5.939,3,5.939V684.139s2.5,10.667,4,13,3.834,5.7,3.834,5.7v-13.2s4,7.5,5.833,9.833,1.04-24.5,1.04-24.5-6.512-16.859-5.119-35.667,10.16-43.827,10.16-43.827-5.819-7.238-20.043-12.764C411.416,577.972,405.083,579.7,405.083,579.7Z"/><path class="cls-5" d="M432.916,641.556s.167,8.25,3.917,13.583c1.276,1.815,5.917,4.75,5.917,4.75s-5.25-.583-7.25-2.583-3-5.917-3-5.917Z"/><path class="cls-20" d="M420.833,649.806s1.083,12.666,2.083,13.583,2.351-8.333,2.351-8.333.733,4.583,2.066,5.916l1.333,1.334"/><ellipse class="cls-18" cx="417.458" cy="598.806" rx="5.125" ry="8.5"/><ellipse class="cls-18" cx="400.948" cy="600.063" rx="7.49" ry="5.591"/><ellipse class="cls-2" cx="417.907" cy="599.162" rx="1.824" ry="3.685"/><ellipse class="cls-2" cx="401.763" cy="601.587" rx="1.824" ry="3.685"/><path class="cls-5" d="M422.583,598.806c0-4.941-2.3-8.947-5.125-8.947s-5.125,4.006-5.125,8.947A8.714,8.714,0,0,1,422.583,598.806Z"/><path class="cls-5" d="M408.264,598.729c-.739-2.625-3.734-4.59-7.316-4.59-4.137,0-7.49,2.62-7.49,5.853a4.681,4.681,0,0,0,.281,1.6C396.286,599.549,401.186,598.624,408.264,598.729Z"/><path class="cls-19" d="M418.513,609.706s3.87,17.112,3.105,22.835-2.975,8.3-6.432,7.779-3.894-5.923-2.952-9.015,3.934-9.034,4.494-12.328S416.122,608,416.122,608Z"/><path class="cls-19" d="M413.607,611.5s-2.255,16.685-4.974,21.688-5.725,6.73-8.842,5.281-1.658-6.493.316-9.047,6.895-7.128,8.575-9.973,3.236-10.174,3.236-10.174Z"/><path class="cls-11" d="M397.5,624.194s5.658-6.561,10.764-8.8a44.979,44.979,0,0,0,8.219-4.591L416.122,608l-15.174,2.6-2.964,3.2A27.775,27.775,0,0,0,397.5,624.194Z"/><path class="cls-28" d="M405.083,579.7s6.5-2.325,21.833,4.392,16.748,11.39,16.748,11.39l-2.581,8.022s-5.536-7.354-21.351-13.732S398.4,586.56,398.4,586.56,401.75,580.752,405.083,579.7Z"/><path class="cls-20" d="M400.176,660.231s1.18.172,3.649-1.75,4.147-12,4.147-12"/><path class="cls-20" d="M396,671.472a12.025,12.025,0,0,0,5.75-1.041c2.346-1,3.323-1.942,5.125-4.209a19.7,19.7,0,0,0,3.439-7.121"/><path class="cls-20" d="M401.208,702.835a15.248,15.248,0,0,0,6-4.863c2.318-3.342,5.673-6,6.4-9.25"/><path class="cls-5" d="M436.652,668.7s8.806,13.644,12.556,16.019l3.75,2.375s-6.971-1.9-10.208-4.5a45.478,45.478,0,0,1-7.667-7.958Z"/><path class="cls-20" d="M435.083,676.347a21.85,21.85,0,0,0,5.75,11.889c1.77,1.754,6.5,1.986,6.5,1.986"/><path class="cls-20" d="M434.044,634.125s-1.867,12.123,1.354,18.491,7.352,7.273,7.352,7.273"/><path class="cls-20" d="M410.314,675.222a54.678,54.678,0,0,1-2.5,8.212,20.627,20.627,0,0,1-9.068,10.038"/><path class="cls-20" d="M422.583,671.508s1.045,13.847,3.189,19.739a62.287,62.287,0,0,0,5.978,11.588"/><path class="cls-20" d="M419,677.472s-.392,8.81-1.044,11.892l-.652,3.082"/><path class="cls-20" d="M433.916,663.453s1.59,4.881,4.212,7.658,7.955,4.111,7.955,4.111"/><path class="cls-16" d="M311.25,704.139l45-24.667s-6.191-3.541-8.554-3.833"/><line class="cls-16" x1="356.25" y1="679.472" x2="360.416" y2="690.139"/><path class="cls-16" d="M389.083,589.222s8.828-10.414,23.414-9.832,31.706,15.29,36.462,21.446c11.791,15.263,10.767,26.136,10.767,26.136"/><line class="cls-16" x1="459.749" y1="640.386" x2="468.25" y2="652.472"/><line class="cls-16" x1="474.458" y1="651.472" x2="468.25" y2="644.806"/><polyline class="cls-16" points="484.75 632.785 490.333 641.972 492.208 643.222"/><line class="cls-16" x1="445.416" y1="644.098" x2="454.083" y2="653.358"/><path class="cls-16" d="M359.083,554.472s4.593,7.364,6.083,9.225,7.417,7.756,7.417,7.756"/><path class="cls-16" d="M372.333,546.222s5.25,6.084,6.75,7.417,3.333,2.63,3.333,2.63"/><path class="cls-16" d="M355.083,561.472s14.566,30.088,25.569,40.115"/><path class="cls-20" d="M1.332,584.347s17.5-44.663,20.125-46.019c1.456-.752,5.6-1.779,9-2.545a6.041,6.041,0,0,1,6.908,3.587l9.468,22.852"/><line class="cls-4" x1="246.202" y1="573.596" x2="242.457" y2="607.306"/><path class="cls-7" d="M45.762,715.091c-10.653-1.044-40.868,8.311-49.5,43.446-15.248,62.036,35.091,83.968,35.091,83.968A31.154,31.154,0,0,0,46.806,854.1c10.235,3.342,17.546,1.357,17.546,1.357s6.579,8.042,20.887,6.58,17.337-7.833,17.337-7.833,9.191,3.342,21.619-3.029,13.368-10.548,13.368-10.548,7.937.627,20.365-10.966,18.586-28.093,19.894-45.535-9.763-46.683-23.654-56.605-26.318-7.728-26.318-7.728a31.7,31.7,0,0,0-8.094-4.126,43.567,43.567,0,0,0-9.922-1.775,31.26,31.26,0,0,0-17.6-7.05,47.521,47.521,0,0,0-19.844,2.611,35.283,35.283,0,0,0-11.488-.522C50.879,710.078,45.762,715.091,45.762,715.091Z"/><path class="cls-5" d="M48.249,679.306s-1.5,14.333-2,19.5.776,23.5,0,24.5c-2.707,3.506-11.961,12.065-18.5,18.166-3.542,3.306-11.667,8.834-9,12s6.432.451,10.167-4.666c4.5-6.167,12.083-12,12.083-12a44.991,44.991,0,0,1-2.75,11.666c-1.021,2.826-2.889,11.713,1.167,12.667,2.833.667,5.333-3.583,5.416-10,.168-12.92,2.584-17.833,2.584-17.833s5.333,5.833,7.666,10.666,4.834,14.667,10.167,13.834,2.25-6.667.583-9.834-4.333-6.5-6.833-10.5-6.917-9-6.25-10.5,15.556-2.77,12-10.166c-2.083-4.334-7,.833-9.5,2.666s-3.483,2.629-3.483,2.629a202.754,202.754,0,0,1,.15-22.295c.659-7.425,3.666-18.5,3.666-18.5Z"/><path class="cls-5" d="M66.249,681.306a92,92,0,0,0,4.667,16.5c3.5,9.166,8.833,20.5,7.833,21.666s-6.833,1-9.667,2.667-7.333,5.5-5.5,8.667,5.863,0,7.432-1.5,7.235-5.5,9.235-5,1.5,5.666,1,9-1.833,15.5,3.667,16.166,3.333-7.333,2.5-12.833-1.834-10.333-.834-10.333,9.918,10.43,13.834,12.5c2.916,1.541,4.541,1.416,5.666.791s.875-4.125-2.5-7.125-15-9.331-14.583-9.5c2.308-.937,17.208,6.875,23.458,7.375s7-.875,7-2-1.437-5.437-13.75-7.5c-7.042-1.179-17.937-2.25-20.812-3.875s-5.928-11.451-7.688-18.75a88.943,88.943,0,0,1-2.291-16.916Z"/><path class="cls-14" d="M58.332,556.972s-2.75-32.833-3.75-33.916-17-12.326-19.75-12.205-31.25,17.437-34,19.4-12.75,16.467-13.25,18.217-3,29.75-3,29.75,13.25-35.25,18-39.5,27.25-15.333,29.5-15.666,5.035,1.222,6.643,2.194,9.357,37.972,9.357,37.972Z"/><path class="cls-14" d="M45.582,565.6s-22.5-19.375-25.5-22.125-18.75-2.083-21.75-2.166-6.8,8.666-6.8,8.666l-1.535,33s14.333-23.5,17.333-24.25a8.72,8.72,0,0,1,5.25.25l19.75,14.5Z"/><path class="cls-14" d="M60.582,555.639s1.834-26,4.75-27.667a34.018,34.018,0,0,1,6.917-2.722s-1.667,13.089-1.667,14.572-.666,12.234-.666,12.234Z"/><path class="cls-14" d="M120.726,603.307c.131,14.342-.166,29.944-2.644,35-4.166,8.5-20.166,21-27.333,25s-8.167,5-11.167,9.166a40.4,40.4,0,0,0-4.666,8.834,6.917,6.917,0,0,1-3.5,1,22.476,22.476,0,0,1-5.167-1s1.333-7.834,2-11.5,1.333-10.5,1.333-10.5-3.333,4.333-7,9.333a79.556,79.556,0,0,0-7,12.667s-6.666,0-7.333-2-4.667-24.334-5.667-28-3.666-6.667-10.333-27.334,5.333-57,15.667-65,35.333-15.333,40-18.333,13.833,3,18,6.167,10.666,11,12,17.5S120.726,603.307,120.726,603.307Z"/><path class="cls-11" d="M75.539,578.722s-.207,22.75-10.207,34.25-71,43.75-73.5,41.25,13.25-15.25,13.25-15.25-13.288,10.25-13.519,6.75,13.519-18.75,13.519-18.75-10.75,13.5-11,10.75,5.5-13.5,5.5-13.5-3.25,5.25-5,5.25,2.949-15.639,2.949-15.639-4.074,7.389-5.074,6.764c-2.292-1.432,0-12.243,9.875-28.053,5.946-9.519,30.5-26.413,38.084-30.413S58.176,552.889,62.6,551c2.736-1.167,23.32-9.7,23.32-9.7L75.539,566.972Z"/><path class="cls-11" d="M125.347,542.222s-1.265,15.5,8.86,25.25,31.375,25.25,52.125,27.25,38.25-4.25,51.75-10.25,26-11.25,29-8.75-8,10.25-18,15-20.75,9.5-20.75,9.5,5.25,2.625,12.084,9.917c9.972,10.641,15.666,21.833,12.833,23.667s-13.833-10.834-13.833-10.834,4.166,19.334.5,21.667-12.834-15.333-12.834-15.333,2,28.166-2.5,29.833-14-24.333-14-24.333.875,28.666-2.666,29.666c-7.181,2.028-10.167-21.166-10.167-21.166s-4,25.666-8.833,25.666-4.834-26-4.834-26-5.5,21.834-11.666,20.334.674-12.827,1.382-31.411a79.548,79.548,0,0,0-.382-12.423s-5.537,22.167-11.459,22.25c-4.437.063-.375-10.125-.375-10.125s-9,21.5-14.25,21.125.5-17.25.5-17.25-6.75,14.125-10.875,13.875.75-17.125.75-17.125-4.125,12.75-8.375,12.25,1.25-18,1.25-18a18.031,18.031,0,0,1-5.285-7.5c-1.715-4.75-4.763-34.508-4.763-34.508l-1.2-26.242Z"/><path class="cls-5" d="M85.916,541.306c4.666-3,16.079-19.572,19.333-29.334,3.708-11.125,2.657-18.047,4.708-31.625,2.625-17.375,8.938-23.375,16.313-26.687a23.012,23.012,0,0,1,19.146.312c5.356,2.6,12.5,10.834,10.333,20.834s-7.5,17.333-15,31.833-12.167,25.833-15.667,37.333-4.5,23.5-4.666,35.5c-.068,4.865,1.575,20-4.228,27.834,0,0,1.394-8.084.978-11.5s-2.5-6.5-2.75-8.917-.417-3.917-.417-3.917a72.914,72.914,0,0,1-2.417,10.584c-1.333,3.583-4.916,7.166-4.916,7.166a74.774,74.774,0,0,0,1.041-10.5,48.107,48.107,0,0,0-2.125-14s0,12.75-1.875,17.375a42.287,42.287,0,0,1-5.375,9A111.524,111.524,0,0,0,99.77,589.41c.062-7.375-2.563-11.438-2.563-11.438s-2.5,3-3.5,11c-.45,3.6,1.625,12.75,1.625,12.75s-6.5-5.125-6.25-17.25a112.238,112.238,0,0,1,1.375-14.25s-3.375,4.625-6,8.875-5,13-5,13-1-13,.625-18.625a27.789,27.789,0,0,1,5.75-10s-3.562.125-7.25,4.125c-2,2.169-6,8.75-6,8.75s-.75-8.5,1.5-13.625a21.412,21.412,0,0,1,5.125-7.5,27.161,27.161,0,0,0-8.625,7,36.8,36.8,0,0,0-5.25,9.625s.5-10.5,4.875-17.5S85.916,541.306,85.916,541.306Z"/><path class="cls-19" d="M126.27,453.66a58.363,58.363,0,0,1,16.312-19.021c6.5-4.667,13.834-7.5,16.334-4.833s.791,6.833-7.5,12.5c-2.4,1.637-4.5,4.333-4,5.833s3.3.55,5.666-1c2.667-1.75,6.042-2.75,7.834-.583,1.993,2.41.416,7.333-3.834,8.416s-11.166,3.917-10.833,7.084,7.167.5,8.5-.917,7-2.833,8.333,1.667-1.166,8.833-6.083,8.5-8.083-2.25-8.75-.5,6.25,4.833,7.9,9.916c1.286,3.968-1.25,10.456-5.981,10-6.917-.666-6.712-13.256-7.834-16.666-1-3.042-2.1-5.289-4.166-4-2.209,1.375,1.666,12.583-3.917,13.75-6.7,1.4-8.917-8.75-8.5-17.584S126.27,453.66,126.27,453.66Z"/><path class="cls-19" d="M124.582,494.847s-8.125,17.25-8.375,23.5,1.875,9.5,6.125,9.75,5.875-5.375,5.375-8.875-2.875-10.5-2.875-14.125,2.963-11.5,2.963-11.5Z"/><path class="cls-19" d="M134.207,500.1s.18,15.143.875,20.625c.563,4.438,3.209,10.6,8,9.375,3.671-.937,4.012-8.492,2.625-12.375-1.138-3.187-7.25-10.375-8.125-14s-1.25-6.375-1.25-6.375Z"/><path class="cls-15" d="M126.791,483.735a50.966,50.966,0,0,0-1.4,13.612c.141,2.764,2.75,10.938,3.75,11s6.312-6.75,8.125-10.687c1.713-3.723,3.526-10.1,3.442-11.1a17.177,17.177,0,0,0-6.907-2.679A20.531,20.531,0,0,0,126.791,483.735Z"/><path class="cls-29" d="M127.936,486.388a11.793,11.793,0,0,1,6.245.564,11.972,11.972,0,0,1,4.433,3.27l1.258-3.835-9.965-3.833Z"/><path class="cls-5" d="M105.834,510.119s-4.752,8.187-9.564,11.353a21.13,21.13,0,0,1-9.854,3.334s4.916,1,8.666,0,9.417-7.121,9.417-7.121Z"/><path class="cls-5" d="M130.166,528.105a137.125,137.125,0,0,0-.75,13.951,40.653,40.653,0,0,0,1.791,10,32.193,32.193,0,0,1-3.271-9.917,69.153,69.153,0,0,1-.141-11.333Z"/><path class="cls-5" d="M88.166,532.889s2.75-1.582,5.5-3.374,6.274-6.459,6.274-6.459l-3.274,7.2Z"/><polygon class="cls-2" points="171.145 495.16 169.933 497.785 166.678 496.535 167.897 494.142 171.145 495.16"/><path class="cls-20" d="M107.582,536.722s-2.921,7.778-2.773,9.264,6.776-6.039,8.023-6.164c1.625-.162.219,3.963,1.25,5.15a1.917,1.917,0,0,0,2.106.375"/><path class="cls-20" d="M79.457,592.1c2.764-10.281,8.115-18.733,16.668-29.208"/><path class="cls-20" d="M115.207,567.972s-1.421,4.383-1.25,6.25c1.792,19.584-7.291,26.5-7.291,26.5"/><path class="cls-16" d="M130.582,626.472s3.084-6.333,3.625-12,0-18,0-18"/><path class="cls-16" d="M129.973,644.442s2.542,3.28,13.109-25.136c1.71-4.6,1.334-15,1.334-15"/><path class="cls-16" d="M136.957,649.347s9.284-2.125,14.625-27.375c.865-4.089,1-12.333,1-12.333"/><path class="cls-16" d="M147.332,652.722s6.625,1.17,17.417-31.083c1.805-5.395.291-15.745.291-15.745"/><path class="cls-16" d="M177.916,612.806s5.333,12.5,6.166,16.833a25.307,25.307,0,0,1,.352,3.911,49.4,49.4,0,0,1-2.919,17.767c-2.107,5.962-5.233,12.439-9.1,11.989"/><path class="cls-16" d="M204.37,663.328s-3.454-1.189-9.788-34.356c-1.2-6.3-10.129-16.166-10.129-16.166"/><path class="cls-16" d="M224.582,659.139s-5.833,0-16-31.039c-2.18-6.657-14.166-17.036-14.166-17.036"/><path class="cls-16" d="M238.132,644.557s-2.1,0-19.216-27.751a26.046,26.046,0,0,0-10.334-9.5"/><path class="cls-16" d="M239.416,622.972a19.482,19.482,0,0,0-3.021-3.625,19.9,19.9,0,0,0-3.75-2.75"/><path class="cls-16" d="M267.082,575.722s5.977,7.608-54.5,29.875c-6,2.211-21.5,5.559-26,5.467"/><path class="cls-30" d="M83.332,642.972a173.919,173.919,0,0,0-27.75,38.334"/><path class="cls-8" d="M102.082,654.36s-2.785,5.362-2.142,7.362,2.142,6.25,2.142,6.25"/><path class="cls-8" d="M109.921,648.478s-.661,5.161,0,6.828,3.328,4,3.328,4"/><path class="cls-30" d="M35.439,633.423s5.143,16.549,11.143,20.937a27.234,27.234,0,0,0,5.667,3.112"/><path class="cls-8" d="M36.443,667.389a10.8,10.8,0,0,0,5.5-3.5c1.883-2.573,2.647-7,2.647-7"/><path class="cls-8" d="M41.713,675.05a17.336,17.336,0,0,0,2.995-4,17.058,17.058,0,0,0,1.267-5.837"/><path class="cls-8" d="M76.457,677.757a9.8,9.8,0,0,0,1.625,3.278,19.874,19.874,0,0,0,2.75,2.25"/><path class="cls-8" d="M78.044,674.824a6.059,6.059,0,0,0,2.288,1.648,6.848,6.848,0,0,0,3-.5"/><path class="cls-16" d="M-8.437,645.722s1.612,4.631,29.894-20.25c4.209-3.7,21.928-19.875,21.928-19.875"/><path class="cls-16" d="M-5.918,637.722s2.875,1,21.5-22.083c4-4.956,16.75-17.292,16.75-17.292"/><path class="cls-16" d="M-5.418,629.472s1.808,1.327,16.834-22.166c6.058-9.473,18.291-20.084,18.291-20.084"/><path class="cls-16" d="M-7.543,620.6s0,3,14.792-22.764c2.122-3.7,14.208-14.861,14.208-14.861"/><path class="cls-5" d="M235.082,530.255s-4.666,40.884,9.75,43.217c17.068,2.763,22.753-38.75,22.753-38.75Z"/><ellipse class="cls-3" cx="251.233" cy="532.543" rx="4.53" ry="16.434" transform="translate(-307.819 717.421) rotate(-83.043)"/><ellipse class="cls-5" cx="242.457" cy="607.306" rx="4.53" ry="13.466" transform="translate(-389.745 774.417) rotate(-83.043)"/><path class="cls-10" d="M262.485,549.472c-2.62,10.007-7.838,23.33-16.857,21.87-6.721-1.088-8.483-12.2-8.725-21.814a27.78,27.78,0,0,1,0-3.972c.346-2.417,4.106-2.234,6.429-1.167,3.084,1.417,5.4,6.731,9.417,7.541A12.272,12.272,0,0,0,262.485,549.472Z"/><path class="cls-9" d="M146.438,696.925c-.588.8.236,1.964,1.19,2.239a24.239,24.239,0,0,0,2.964.2,4,4,0,0,1,3.193,4.459c-.224,1.284-1.089,2.413-1.166,3.714a4.742,4.742,0,0,0,1.922,3.692c1.1.93,2.4,1.585,3.531,2.479,2.51,1.989,3.959,5,5.964,7.493s5.16,4.635,8.242,3.763c2.345-.664,3.933-2.92,4.634-5.254a43.53,43.53,0,0,0,1.006-7.23c.327-2.638,1.388-5.645,3.932-6.414,1.329.921,2.3,2.5,3.62,3.43s3.387,1.215,4.4-.047c.8-1,.578-2.506,1.239-3.6.553-.914,1.608-1.375,2.416-2.074a6.287,6.287,0,0,0,1.807-5.742,12.242,12.242,0,0,0-2.78-5.563,6.644,6.644,0,0,0-2.658-2.2c-2.694-1.022-5.5,1.132-8.363,1.451s-5.543-1.208-8.269-2.116a20,20,0,0,0-15.1,1.083,9.751,9.751,0,0,1-2.719,1.113c-1.408.229-2.85-.322-4.262-.125C148.453,692.057,148.063,694.709,146.438,696.925Z"/><path class="cls-11" d="M191.961,725.923c-7.555-.741-28.984,5.894-35.109,30.813-10.814,44,24.887,59.551,24.887,59.551a22.1,22.1,0,0,0,10.962,8.222c7.259,2.37,12.444.963,12.444.963s4.666,5.7,14.814,4.666,12.3-5.555,12.3-5.555,6.518,2.37,15.332-2.148,9.481-7.481,9.481-7.481,5.629.444,14.443-7.777,13.182-19.925,14.109-32.294-6.924-33.109-16.775-40.146-18.666-5.481-18.666-5.481a22.457,22.457,0,0,0-5.74-2.926,30.889,30.889,0,0,0-7.037-1.259,22.172,22.172,0,0,0-12.48-5,33.714,33.714,0,0,0-14.074,1.852,24.991,24.991,0,0,0-8.147-.37C195.59,722.367,191.961,725.923,191.961,725.923Z"/><path class="cls-16" d="M192.013,726a22.431,22.431,0,0,1,7.053,2.378,21.327,21.327,0,0,1,3.017,1.611,18.192,18.192,0,0,1,5.013,5.872"/><path class="cls-16" d="M170.832,759.173a48.924,48.924,0,0,1,12.155-18.785,25.63,25.63,0,0,1,4.137-3.328,20.994,20.994,0,0,1,12.021-2.885c4.835.221,9.879,2.029,12.69,5.97"/><path class="cls-16" d="M196.063,762.511a58.363,58.363,0,0,1,7.228-14.092c3.171-4.242,7.473-7.807,12.569-9.253a15.943,15.943,0,0,1,14.866,3.125c6.516,5.9,11.651,16.173,13.231,23.8"/><path class="cls-16" d="M238.523,736.545a23.928,23.928,0,0,1,4.962-4.823,13.7,13.7,0,0,1,6.4-2.491"/><path class="cls-16" d="M229.807,741.149a15.6,15.6,0,0,1,13.715-4.31c14.064,2.367,21.253,16.953,22.755,20.042"/><path class="cls-9" d="M240.589,734.11a31.343,31.343,0,0,1-11.057-5.205c-2.081-1.539-4.092-3.569-4.37-6.142-.469-4.322,4.07-7.882,3.954-12.228-.086-3.22-2.6-5.709-5.415-7.268a6.391,6.391,0,0,0-1.95-2.735,11.906,11.906,0,0,0-3.811-1.359c-1.3-.381-2.674-1.139-3.021-2.452a3.553,3.553,0,0,1,.015-1.615,7,7,0,0,1,3.257-4.565,7.358,7.358,0,0,1,5.7-.767,8.088,8.088,0,0,0-6.969-.667,9.713,9.713,0,0,0-3.879,2.821,7.6,7.6,0,0,0-1.661,2.956,6.077,6.077,0,0,0,.921,4.9,8.307,8.307,0,0,0,4.33,3.07,7.54,7.54,0,0,0,1.361,2.7,2.573,2.573,0,0,0,2.732.832,2.28,2.28,0,0,0,.992,2.361c.284.177.606.289.88.481a1.852,1.852,0,0,1,.707,1.951,1.253,1.253,0,0,1-.317.573,2.993,2.993,0,0,1-.838.446,2.572,2.572,0,0,0-1.213,1.225,6.516,6.516,0,0,1-.476,1.067,3.985,3.985,0,0,1-.789.72,5.508,5.508,0,0,0-1.581,2.9,7.252,7.252,0,0,0-2.8,2.629,10.978,10.978,0,0,1-1.415,2.228,13.272,13.272,0,0,1-1.2.934c-1.57,1.236-2.4,3.169-3.638,4.735a10.8,10.8,0,0,1-4.018,3.126c.2,1.871,1.613,3.484,3.053,4.7s3.034,2.383,3.8,4.1a19.853,19.853,0,0,1,18.3,1.011,4.942,4.942,0,0,1,2.665-2.777,21.967,21.967,0,0,1,6.143-2.282A5.367,5.367,0,0,1,240.589,734.11Z"/><path class="cls-23" d="M246.4,679.848a2.107,2.107,0,0,0-3.932.652,4.268,4.268,0,0,0,.729,2.616l1.046,1.961a5.255,5.255,0,0,1,.752,2.066,1.8,1.8,0,0,1-.986,1.82,1.878,1.878,0,0,1-2.013-.725,8.774,8.774,0,0,1-1.033-2.032,4.036,4.036,0,0,0-2.143-2.31,1.908,1.908,0,0,0-2.523,1.28,2.388,2.388,0,0,0,.9,1.911,8.875,8.875,0,0,1,1.545,1.548,1.587,1.587,0,0,1-.106,2.008,1.963,1.963,0,0,1-2.18-.163,3.773,3.773,0,0,0-2.133-.834c-1.009.1-1.62,1.114-2.188,1.953s-1.566,1.684-2.486,1.259c-1.122-.519-5.653-5.073-12.751-2.948"/><path class="cls-9" d="M207.021,719.53c.724,2.266,1.439,4.775.493,6.957a7.867,7.867,0,0,1-3.4,3.414,6.5,6.5,0,0,1-2.41.949c-1.7.224-3.336-.667-4.778-1.6a11.432,11.432,0,0,1-2.769-2.288,8.8,8.8,0,0,1-1.307-2.338,15.856,15.856,0,0,1-.389-10.034,20.5,20.5,0,0,1,5.172-8.692,8.58,8.58,0,0,1,2.551-1.932,8.862,8.862,0,0,1,4.254-.5,9.379,9.379,0,0,1,6.507,3.278A8.508,8.508,0,0,1,212.9,711.1a18.835,18.835,0,0,0,.276,2.111,2.575,2.575,0,0,0,1.178,1.7,4.222,4.222,0,0,0,2.664.021,2.5,2.5,0,0,1,2.5.6c-.588.76-1.026,1.3-1.614,2.058-.932-.7-2.322-.767-3.459-1.024a4.5,4.5,0,0,1-3.29-3.192c-.251-.973-.162-2-.323-2.994a6.178,6.178,0,0,0-4.871-4.962c-2.339-.422-4.852-.412-6.768.994a17.267,17.267,0,0,0-4.426,5.523,14.405,14.405,0,0,0-1.557,3.422c-.708,2.658.011,5.489,1.042,8.039,1.07,2.642,2.787,5.395,5.56,6.059a6.307,6.307,0,0,0,6.6-3.136A7.862,7.862,0,0,0,207.021,719.53Z"/><path class="cls-13" d="M208.658,736.866a14.3,14.3,0,0,0,5.046-11c-.017-1.244-.089-2.736.932-3.449"/><path class="cls-13" d="M218.488,718.06a18.636,18.636,0,0,0-1.453,10.02,45.166,45.166,0,0,0,2.5,9.924"/><path class="cls-13" d="M220.7,713.767a34.266,34.266,0,0,0,9.973,25.885"/><path class="cls-13" d="M223.357,711.55a14.2,14.2,0,0,0,1.921,12.309"/><path class="cls-23" d="M193.026,715.138c2.412.106,4.866-.19,7.276.06,3.214.335,9.489,2.507,6.794,10.8"/><path class="cls-2" d="M168.721,494.434,140.1,484.315s-8.5,19.8,7.865,25.191C160.847,513.751,168.721,494.434,168.721,494.434Z"/><path class="cls-2" d="M102.832,469.1l28.375,11.875s-7,20.375-22.743,13.386C96.069,488.856,102.832,469.1,102.832,469.1Z"/><rect class="cls-18" x="97.457" y="469.847" width="14.5" height="5.75" transform="translate(204.553 -1.051) rotate(24.39)"/><polygon class="cls-29" points="98.926 466.753 95.335 473.743 101.952 476.793 105.347 469.855 98.926 466.753"/><circle cx="99.957" cy="471.972" r="1.922"/><path class="cls-20" d="M99.332,574.639a17.49,17.49,0,0,0-2.634,4.1,26.209,26.209,0,0,0-3.047,10.983c-.069,4.665,1.681,12,1.681,12"/><path class="cls-20" d="M85.916,552.6a41.913,41.913,0,0,0-9.625,4.368c-8.084,5.166-10.959,14.882-10.959,14.882"/><path class="cls-20" d="M70.267,546.18a55.126,55.126,0,0,0,9.815-2.083c9.25-2.807,14.947-13.335,14.947-13.335"/><path class="cls-20" d="M83.457,532.889a35.541,35.541,0,0,0,8.235-1.093c3.337-1.034,9.3-6.546,9.3-6.546"/><path class="cls-20" d="M121.991,552.056a46,46,0,0,0,0,13.916c1.01,5.294,5.63,10.667,5.63,10.667"/><path class="cls-20" d="M88.166,547.972c2.416-1,9.166-8.15,9.166-8.15"/><path class="cls-20" d="M106.666,564.347s1.25-5.541,2.25-8.708"/><line class="cls-8" x1="140.103" y1="484.315" x2="171.145" y2="495.16"/><line class="cls-8" x1="98.926" y1="466.753" x2="131.207" y2="480.972"/><path class="cls-8" d="M76.582,571.847s1.25,26.625-11.25,41.125-71.667,42.5-73.5,41.25"/><path class="cls-20" d="M47.916,558.972s-1.334-32.333-2.334-33.722-7-7.611-11.357-7.565S4.916,531.972.582,534.306s-13,14.166-13,14.166"/><path class="cls-20" d="M-9.135,564.347s7.384-11.875,11.217-13.708c1.24-.593,13.95-3.343,15.392-2.672S34.225,573.6,34.225,573.6"/><line class="cls-20" x1="65.332" y1="527.972" x2="62.596" y2="551.004"/><path class="cls-5" d="M18.749,753.472a43.877,43.877,0,0,0-2.542,5c-.375,1.25,5-4.375,5-4.375Z"/><path class="cls-5" d="M64.081,730.556a43.877,43.877,0,0,0-2.542,5c-.375,1.25,5-4.375,5-4.375Z"/><path class="cls-5" d="M38.878,759.692a43.827,43.827,0,0,0-1,5.519c0,1.3,3.534-5.626,3.534-5.626Z"/><path class="cls-5" d="M84.431,748.564a43.867,43.867,0,0,0,2.151,5.18c.707,1.1-.079-6.643-.079-6.643Z"/><path class="cls-5" d="M63.88,718.429a43.868,43.868,0,0,0,4.435-3.435c.873-.97-6.39,1.82-6.39,1.82Z"/><path class="cls-5" d="M64.691,757.239a43.913,43.913,0,0,0,3.493,4.389c.981.86-1.9-6.365-1.9-6.365Z"/><path class="cls-5" d="M104.187,738.782a43.869,43.869,0,0,0,3.492,4.389c.982.86-1.9-6.365-1.9-6.365Z"/><path class="cls-5" d="M117.229,729.519a43.83,43.83,0,0,0,5.077,2.385c1.261.335-4.529-4.861-4.529-4.861Z"/><path class="cls-20" d="M41,736.806s-4.909,4.054-6.857,6.06S25.261,753.675,23.4,754.66s-4.646-1.188-4.646-1.188"/><path class="cls-20" d="M51.516,710.972s-.495,8.957,1.233,16c1.247,5.083,4.081,7.859,7.06,11.765,7.107,9.319,7.936,13.311,8.4,15.4s-2.956,3.671-2.956,3.671"/><path class="cls-20" d="M48.249,730.556a53.273,53.273,0,0,0-2.978,12.686c-.39,5.818-.6,12.7-1.427,14.564-2.431,5.5-5.576,2.728-5.576,2.728"/><path class="cls-20" d="M87.442,748.849c-4.515,2.626-6.151-1.46-6.754-5.607-.338-2.325,1.007-14.9.693-17.584S70.49,696.664,70.49,696.664l-4.142-14.126a3.017,3.017,0,0,0,2.333,1.438,22.113,22.113,0,0,0,3.125,0"/><path class="cls-20" d="M63.582,730.806s1.083,2,4,.916,6.355-4.679,6.355-4.679"/><path class="cls-20" d="M86.877,720.972a121.432,121.432,0,0,0,13.038,8.835c6,3.332,8.771,9.407,5.136,10.161"/><path class="cls-20" d="M117.907,725.56s4.175,4.241-1.741,4.91a17.8,17.8,0,0,1-10.131-1.772"/><path class="cls-20" d="M48.249,683.285a3.017,3.017,0,0,0,2.333,1.437,22.113,22.113,0,0,0,3.125,0"/><path class="cls-20" d="M47.593,685.757a3.017,3.017,0,0,0,2.333,1.437,22.113,22.113,0,0,0,3.125,0"/><path class="cls-20" d="M67.564,686.429a2.947,2.947,0,0,0,1.776.765,22.113,22.113,0,0,0,3.125,0"/><path class="cls-20" d="M68.471,689.781a2.458,2.458,0,0,0,1.623.639,22.113,22.113,0,0,0,3.125,0"/><path class="cls-20" d="M69.711,693.536a2.957,2.957,0,0,0,1.01.259,22.113,22.113,0,0,0,3.125,0"/><path class="cls-20" d="M47.217,688.982a3.017,3.017,0,0,0,2.333,1.438c.691.053,1.36.061,1.9.053"/><path class="cls-20" d="M46.842,692.357a3.017,3.017,0,0,0,2.333,1.438c.518.04,1.022.054,1.469.055"/><path class="cls-20" d="M46.53,696.232a3.022,3.022,0,0,0,2.018,1.4"/><path class="cls-20" d="M48.2,679.763s-2.406,14.386-2.226,19.876.274,23.667.274,23.667"/><line class="cls-20" x1="66.249" y1="681.306" x2="66.348" y2="682.538"/><path class="cls-8" d="M117.229,735.737a115.181,115.181,0,0,1,15.286,14.739c13.328,15.463,15.317,52.7,15.317,52.7"/><path class="cls-8" d="M96.491,736.545s8.181,19.583,9.544,33.314a165.528,165.528,0,0,1,0,33.314"/><path class="cls-8" d="M75.539,738a153.657,153.657,0,0,0-6.082,32.848,206.626,206.626,0,0,0,.558,32.321"/><path class="cls-8" d="M34.225,767.639s-3.088,9.009-3.9,14.667a85.234,85.234,0,0,0-.619,20.867"/><line class="cls-16" x1="173.416" y1="609.639" x2="173.416" y2="619.472"/><path class="cls-16" d="M176.707,608.847c-15-2.25-25.545-9.251-36.835-18.4"/><path class="cls-13" d="M157.944,697.969l2.775,1.757a8.459,8.459,0,0,0,2.778,1.315,10.109,10.109,0,0,0,3.729-.29c3.359-.606,7.12-.7,9.957,1.2,4.649,3.108,7.644,11.932,15.145,13.147"/><path class="cls-8" d="M32.332,730.586s-13.583,8.011-17.75,12.656a126.871,126.871,0,0,0-20,30.08"/><path class="cls-8" d="M115.332,721.732a33.676,33.676,0,0,1,12.518-1.941"/><path class="cls-16" d="M393.739,601.587s2.638-2.1,8.024-2.6a37.36,37.36,0,0,1,6.5-.259"/><path class="cls-16" d="M412.333,598.806a9.048,9.048,0,0,1,5.574-1.653,8.109,8.109,0,0,1,4.676,1.653"/><path class="cls-16" d="M445.772,426.316s2.357.622,3.116-.469c4.7-6.75,8.391-4.755,8.391-4.755"/><path class="cls-16" d="M465.157,414.88c2.939-4.988,6.358-5.605,8.16-5.521a2.083,2.083,0,0,0,1.945-1.189l.363-.739"/><circle class="cls-2" cx="487.826" cy="419.859" r="5.333"/><path class="cls-16" d="M420.833,726.9s-16.654,11.577-14.982,32.291c2.121,26.279,21.757,31.106,21.757,31.106"/><line class="cls-16" x1="400.583" y1="776.597" x2="410.026" y2="776.597"/><line class="cls-16" x1="399.442" y1="772.597" x2="408.885" y2="772.597"/><line class="cls-16" x1="397.192" y1="765.895" x2="406.635" y2="765.895"/><line class="cls-16" x1="396.033" y1="756.472" x2="405.476" y2="756.472"/><line class="cls-16" x1="404.164" y1="781.097" x2="413.607" y2="781.097"/><line class="cls-16" x1="407.611" y1="784.347" x2="417.055" y2="784.347"/><line class="cls-16" x1="411.153" y1="787.097" x2="420.596" y2="787.097"/><line class="cls-16" x1="415.528" y1="789.847" x2="424.971" y2="789.847"/><path class="cls-13" d="M356.25,624.472s13.58-8.525,20.833-9.5c14.875-2,27.5,6,27.5,6"/><path class="cls-15" d="M404.98,604.77a47.179,47.179,0,0,1,6.823.4L416.122,608s-10.193,3.6-14.359,6.525-12.68,10.694-12.68,10.694.625-9.617,1.875-12.312c2-4.313,6.1-6.906,7.583-7.743C399.405,604.68,404.98,604.77,404.98,604.77Z"/><path class="cls-16" d="M389.083,625.222s11.232-10.584,14.991-12.084S416.122,608,416.122,608"/><polygon class="cls-31" points="156.407 38.969 132.909 79.647 179.905 79.647 156.407 38.969"/><path d="M156.337,74.046c-7.486,0-13.554-8.266-13.554-8.266s6.068-8.267,13.554-8.267,13.555,8.267,13.555,8.267S163.823,74.046,156.337,74.046Z"/><ellipse class="cls-31" cx="156.337" cy="65.78" rx="5.736" ry="5.912"/><ellipse class="cls-32" cx="156.337" cy="65.78" rx="3.381" ry="3.485"/><g class="cls-33"><path class="cls-18" d="M199.269,57.5V64.69h12.587v5.05H199.269v9.907h-6.294v-27.2h20.552V57.5Z"/></g><g class="cls-33"><path class="cls-18" d="M232.679,60.746q2.6,2.311,2.6,6.974V79.647H229.61v-2.6q-1.712,2.914-6.372,2.914a9.883,9.883,0,0,1-4.176-.816,6.218,6.218,0,0,1-2.7-2.254,5.856,5.856,0,0,1-.933-3.263,5.447,5.447,0,0,1,2.195-4.584q2.194-1.671,6.779-1.67h4.818a3.869,3.869,0,0,0-1.2-3.051,5.308,5.308,0,0,0-3.614-1.068,10.534,10.534,0,0,0-3.282.525,8.7,8.7,0,0,0-2.739,1.417l-2.176-4.234a13.135,13.135,0,0,1,4.1-1.865,18.372,18.372,0,0,1,4.914-.66Q230.076,58.435,232.679,60.746ZM227.512,75.16a3.936,3.936,0,0,0,1.709-2.118V70.906h-4.157q-3.729,0-3.73,2.447a2.178,2.178,0,0,0,.914,1.846,4.11,4.11,0,0,0,2.5.679A5.282,5.282,0,0,0,227.512,75.16Z"/><path class="cls-18" d="M242.7,79.317a13.3,13.3,0,0,1-3.963-1.612l2.02-4.352a12.663,12.663,0,0,0,3.38,1.457,14.151,14.151,0,0,0,3.885.564q3.846,0,3.847-1.9a1.348,1.348,0,0,0-1.049-1.282,15.544,15.544,0,0,0-3.225-.66,31.084,31.084,0,0,1-4.235-.894,6.582,6.582,0,0,1-2.894-1.787,5.082,5.082,0,0,1-1.224-3.653,5.72,5.72,0,0,1,1.146-3.515,7.388,7.388,0,0,1,3.341-2.39,14.286,14.286,0,0,1,5.187-.854,20.412,20.412,0,0,1,4.41.485,12.323,12.323,0,0,1,3.632,1.341l-2.02,4.312a12.063,12.063,0,0,0-6.022-1.554,6.119,6.119,0,0,0-2.914.544,1.6,1.6,0,0,0-.971,1.4,1.39,1.39,0,0,0,1.049,1.36,18.736,18.736,0,0,0,3.341.738,35.765,35.765,0,0,1,4.2.913,6.3,6.3,0,0,1,2.836,1.767,5.021,5.021,0,0,1,1.2,3.575,5.517,5.517,0,0,1-1.165,3.457,7.434,7.434,0,0,1-3.4,2.35,15.15,15.15,0,0,1-5.3.836A20.315,20.315,0,0,1,242.7,79.317Z"/></g><g class="cls-33"><path class="cls-18" d="M274.877,78.637a6.214,6.214,0,0,1-2.195.991,11.109,11.109,0,0,1-2.739.33,8.142,8.142,0,0,1-5.769-1.9,7.284,7.284,0,0,1-2.04-5.6V63.874H258.91V59.212h3.224v-5.09H268.2v5.09H273.4v4.662H268.2v8.508a2.855,2.855,0,0,0,.68,2.04,2.519,2.519,0,0,0,1.923.718,3.9,3.9,0,0,0,2.448-.777Z"/></g><g class="cls-33"><path class="cls-18" d="M297.993,70.906H282.181a4.924,4.924,0,0,0,2.02,3.069,6.686,6.686,0,0,0,3.963,1.126,8.014,8.014,0,0,0,2.894-.485,7.028,7.028,0,0,0,2.351-1.535l3.225,3.5q-2.953,3.38-8.625,3.38a13.644,13.644,0,0,1-6.255-1.379,10.105,10.105,0,0,1-4.2-3.827,10.537,10.537,0,0,1-1.477-5.556,10.678,10.678,0,0,1,1.458-5.536,10.208,10.208,0,0,1,4-3.846,12.393,12.393,0,0,1,11.247-.059,9.651,9.651,0,0,1,3.905,3.788,11.3,11.3,0,0,1,1.418,5.731C298.11,69.351,298.071,69.9,297.993,70.906Zm-14.18-6.722a4.968,4.968,0,0,0-1.71,3.187h10.3a5.014,5.014,0,0,0-1.71-3.167,5.109,5.109,0,0,0-3.419-1.185A5.218,5.218,0,0,0,283.813,64.184Z"/></g><g class="cls-33"><path class="cls-18" d="M310.87,59.212a10.881,10.881,0,0,1,4.254-.777v5.594q-1.011-.076-1.36-.077a5.555,5.555,0,0,0-4.079,1.456,5.885,5.885,0,0,0-1.477,4.371v9.868h-6.06v-20.9h5.789V61.5A6.728,6.728,0,0,1,310.87,59.212Z"/></g><g class="cls-33"><path class="cls-18" d="M337.093,53.656a9,9,0,0,1,5.537,8.664,9.442,9.442,0,0,1-1.437,5.225,9.159,9.159,0,0,1-4.1,3.419,15.3,15.3,0,0,1-6.274,1.185h-5.477v7.5h-6.294v-27.2h11.771A15.1,15.1,0,0,1,337.093,53.656ZM334.783,65.8a4.266,4.266,0,0,0,1.476-3.477,4.315,4.315,0,0,0-1.476-3.517,6.619,6.619,0,0,0-4.314-1.223h-5.127v9.441h5.127A6.613,6.613,0,0,0,334.783,65.8Z"/></g><g class="cls-33"><path class="cls-18" d="M362.366,60.746q2.6,2.311,2.6,6.974V79.647H359.3v-2.6q-1.71,2.914-6.371,2.914a9.885,9.885,0,0,1-4.177-.816,6.218,6.218,0,0,1-2.7-2.254,5.856,5.856,0,0,1-.933-3.263,5.447,5.447,0,0,1,2.195-4.584q2.195-1.671,6.78-1.67h4.817a3.869,3.869,0,0,0-1.2-3.051,5.305,5.305,0,0,0-3.613-1.068,10.536,10.536,0,0,0-3.283.525,8.7,8.7,0,0,0-2.739,1.417l-2.176-4.234a13.145,13.145,0,0,1,4.1-1.865,18.374,18.374,0,0,1,4.915-.66Q359.763,58.435,362.366,60.746ZM357.2,75.16a3.932,3.932,0,0,0,1.709-2.118V70.906h-4.157q-3.729,0-3.73,2.447a2.182,2.182,0,0,0,.913,1.846,4.115,4.115,0,0,0,2.506.679A5.282,5.282,0,0,0,357.2,75.16Z"/></g><g class="cls-33"><path class="cls-18" d="M390.811,58.746,381.37,80.929a10.917,10.917,0,0,1-3.555,5.09,8.709,8.709,0,0,1-5.109,1.476,10.633,10.633,0,0,1-3.224-.505,7.13,7.13,0,0,1-2.6-1.4l2.214-4.313a5.217,5.217,0,0,0,1.613.971,5,5,0,0,0,1.806.35,3.206,3.206,0,0,0,2.02-.6,5.127,5.127,0,0,0,1.4-2l.078-.194-9.053-21.057h6.255l5.867,14.18,5.905-14.18Z"/></g><path class="cls-31" d="M145.5,180.506l5.512-26.912c.13-.69.388-.948,1.034-.948.517,0,.732.215.732.517a5.011,5.011,0,0,1-.129.689l-6.373,30.228a1.058,1.058,0,0,1-.991.861h-1.335c-.731,0-.947-.516-1.119-1.205l-4.952-26.526-5.21,26.87a1.058,1.058,0,0,1-.991.861h-1.335c-.731,0-.947-.516-1.119-1.205l-6.028-29.884a1.778,1.778,0,0,1-.043-.388c0-.473.257-.818.9-.818h1.593c.689,0,.818.517.99,1.206l5.254,26.654,5-26.654c.129-.6.388-1.206,1.033-1.206h1.766c.688,0,.9.6.99,1.206Z"/><path class="cls-31" d="M160.1,183.736c0,.732-.3,1.205-.99,1.205h-1.335a1.065,1.065,0,0,1-1.119-1.205V153.852a1.065,1.065,0,0,1,1.119-1.206h1.335c.688,0,.99.474.99,1.206Z"/><path class="cls-31" d="M184.084,183.736c0,.775-.387,1.205-1.076,1.205h-1.292c-.732,0-1.119-.6-1.378-1.205l-12.186-24.674v25.363c0,.344-.129.516-.431.516h-.947c-.3,0-.43-.172-.43-.516l.043-30.573a1.066,1.066,0,0,1,1.119-1.206h1.464c.689,0,.818.517,1.163,1.206l12.143,26.008v-26.7c0-.345.129-.517.43-.517h.948c.3,0,.43.172.43.517Z"/><path class="cls-31" d="M194.206,173.057v8.87c0,.732.388,1.292,1.119,1.292h6.03c.731,0,1.205.086,1.205.818s-.474.9-1.205.9h-9.474a1.065,1.065,0,0,1-1.119-1.205V153.852c0-.732.3-1.206.99-1.206h8.741c.732,0,1.205.172,1.205.9s-.473.819-1.205.819h-5.3c-.689,0-.991.473-.991,1.205v15.761h5c.732,0,1.205.128,1.205.86s-.473.862-1.205.862Z"/><path class="cls-31" d="M218.365,173.746v-9.6c0-7.061,3.918-11.5,10.894-11.5h2.325c.689,0,.99.474.99,1.206v29.884c0,.732-.3,1.205-.99,1.205h-1.335a1.065,1.065,0,0,1-1.119-1.205v-8.268h-7.32v8.268c0,.732-.3,1.205-.991,1.205h-1.334a1.065,1.065,0,0,1-1.12-1.205v-8.268h-.388c-.732,0-1.205-.129-1.205-.861s.473-.861,1.205-.861Zm3.445,0h7.32V155.574c0-.732-.3-1.205-.991-1.205-4.435,0-6.329,3.66-6.329,10.765Z"/><path class="cls-31" d="M256.992,183.736c0,.775-.387,1.205-1.076,1.205h-1.292c-.732,0-1.119-.6-1.378-1.205L241.06,159.062v25.363c0,.344-.129.516-.431.516h-.947c-.3,0-.43-.172-.43-.516l.043-30.573a1.066,1.066,0,0,1,1.119-1.206h1.464c.69,0,.819.517,1.163,1.206l12.143,26.008v-26.7c0-.345.129-.517.431-.517h.947c.3,0,.43.172.43.517Z"/><path class="cls-31" d="M267.544,184.941h-2.756a1.066,1.066,0,0,1-1.12-1.205V153.852c0-.732.3-1.206.991-1.206h4.306c7.106,0,10.378,5.9,10.378,14.942C279.343,178.525,273.96,184.941,267.544,184.941Zm1.335-30.572H268.1c-.689,0-.99.473-.99,1.205v26.353a1.066,1.066,0,0,0,1.119,1.206c3.962,0,7.363-5.382,7.363-15.631C275.6,159.493,274.305,154.369,268.879,154.369Z"/><path class="cls-31" d="M304.019,154.2c-2.756,0-6.071,5.813-6.071,15.933S301.091,183,303.545,183c2.369,0,3.531-2.153,3.962-4.177.172-.732.172-1.206.9-1.206s.819.474.819,1.206c0,1.981-2.111,6.545-6.8,6.545-3.746,0-8.439-3.531-8.439-15.028,0-11.756,5.21-18.128,9.688-18.128,4,0,4.908,2.325,4.908,7.061,0,.732-.086,1.206-.817,1.206s-.9-.474-.9-1.206C306.862,155.919,305.914,154.2,304.019,154.2Z"/><path class="cls-31" d="M328.566,183.736c0,.732-.3,1.205-.991,1.205H326.24a1.066,1.066,0,0,1-1.119-1.205v-8.268H316.94v8.268c0,.732-.3,1.205-.991,1.205h-1.334a1.066,1.066,0,0,1-1.121-1.205v-8.268h-.043c-.731,0-1.205-.129-1.205-.861s.474-.861,1.205-.861h.043V153.852a1.067,1.067,0,0,1,1.121-1.206h1.334c.689,0,.991.474.991,1.206v19.894h8.181V153.852a1.066,1.066,0,0,1,1.119-1.206h1.335c.69,0,.991.474.991,1.206Z"/><path class="cls-31" d="M337.825,173.057v8.87c0,.732.388,1.292,1.12,1.292h6.029c.731,0,1.2.086,1.2.818s-.474.9-1.2.9H335.5a1.065,1.065,0,0,1-1.119-1.205V153.852c0-.732.3-1.206.99-1.206h8.742c.731,0,1.2.172,1.2.9s-.474.819-1.2.819h-5.3c-.689,0-.991.473-.991,1.205v15.761h5c.731,0,1.2.128,1.2.86s-.474.862-1.2.862Z"/><path class="cls-31" d="M355.438,173.057v8.87c0,.732.387,1.292,1.119,1.292h6.029c.732,0,1.2.086,1.2.818s-.473.9-1.2.9h-9.473a1.066,1.066,0,0,1-1.121-1.205V153.852c0-.732.3-1.206.992-1.206h8.741c.731,0,1.2.172,1.2.9s-.474.819-1.2.819h-5.3c-.688,0-.99.473-.99,1.205v15.761h5c.731,0,1.206.128,1.206.86s-.475.862-1.206.862Z"/><path class="cls-31" d="M374.429,185.372c-4.607,0-6.545-4.177-6.545-9.3,0-.99.215-1.464.947-1.464s.775.474.775,1.507c0,4.306,2.067,7.277,4.349,7.277,2.583,0,4.091-2.885,4.091-5.856,0-8.784-9-9.559-9-17.138,0-4.65,3.23-8.181,6.89-8.181,3.746,0,4.909,2.325,4.909,7.061,0,.732-.086,1.206-.818,1.206s-.9-.474-.9-1.206c0-3.358-.947-5.081-2.841-5.081-1.852,0-3.4,2.24-3.4,4.522,0,7.018,9,8.741,9,17.1C381.878,181.5,378.649,185.372,374.429,185.372Z"/><path class="cls-31" d="M391.353,173.057v8.87c0,.732.387,1.292,1.119,1.292H398.5c.732,0,1.205.086,1.205.818s-.473.9-1.205.9h-9.473a1.065,1.065,0,0,1-1.12-1.205V153.852c0-.732.3-1.206.991-1.206h8.741c.731,0,1.205.172,1.205.9s-.474.819-1.205.819h-5.3c-.688,0-.99.473-.99,1.205v15.761h5c.731,0,1.2.128,1.2.86s-.474.862-1.2.862Z"/><path class="cls-31" d="M107.734,239.6v-9.6c0-7.062,3.919-11.5,10.894-11.5h2.325c.689,0,.991.473.991,1.206v29.883c0,.732-.3,1.206-.991,1.206h-1.335a1.066,1.066,0,0,1-1.119-1.206v-8.267h-7.32v8.267c0,.732-.3,1.206-.991,1.206h-1.334a1.066,1.066,0,0,1-1.12-1.206v-8.267h-.388c-.731,0-1.2-.13-1.2-.861s.474-.862,1.2-.862Zm3.445,0h7.32V221.425c0-.732-.3-1.206-.991-1.206-4.435,0-6.329,3.66-6.329,10.765Z"/><path class="cls-31" d="M146.361,249.586c0,.775-.388,1.206-1.077,1.206h-1.292c-.732,0-1.119-.6-1.377-1.206l-12.187-24.673v25.362c0,.345-.129.517-.43.517h-.948c-.3,0-.431-.172-.431-.517l.044-30.572a1.065,1.065,0,0,1,1.119-1.206h1.464c.69,0,.819.517,1.163,1.206l12.143,26.008v-26.7c0-.345.129-.517.431-.517h.947c.3,0,.431.172.431.517Z"/><path class="cls-31" d="M156.913,250.792h-2.756a1.067,1.067,0,0,1-1.12-1.206V219.7c0-.733.3-1.206.992-1.206h4.305c7.106,0,10.378,5.9,10.378,14.942C168.712,244.376,163.329,250.792,156.913,250.792Zm1.335-30.573h-.775c-.689,0-.99.474-.99,1.206v26.353a1.065,1.065,0,0,0,1.119,1.205c3.962,0,7.363-5.382,7.363-15.63C164.965,225.343,163.674,220.219,158.248,220.219Z"/><path class="cls-31" d="M187.66,238.907v10.679c0,.732-.3,1.206-.99,1.206h-1.335a1.067,1.067,0,0,1-1.12-1.206V219.7c0-.733.3-1.206.991-1.206h9.6c.731,0,1.205.172,1.205.9s-.474.818-1.205.818h-6.158c-.689,0-.991.474-.991,1.206v15.76h5.426c.732,0,1.2.129,1.2.861s-.473.861-1.2.861Z"/><path class="cls-31" d="M216.384,249.242a2.453,2.453,0,0,1,.387.947c0,.345-.215.6-.689.6h-1.894a1.5,1.5,0,0,1-1.464-.99l-6.416-10.421a1.209,1.209,0,0,1-.173-.56c0-.947,6.933-4.952,6.933-13.478,0-3.53-2.067-5.124-5.684-5.124h-1.766c-.688,0-.99.474-.99,1.206v28.161c0,.732-.3,1.206-.99,1.206H202.3a1.066,1.066,0,0,1-1.119-1.206V219.7c0-.733.3-1.206.99-1.206h6.674c5.34,0,8.01,2.153,8.01,6.933,0,5.339-4.565,9.9-7.579,12.142Z"/><path class="cls-31" d="M225.687,249.586c0,.732-.3,1.206-.99,1.206h-1.335a1.066,1.066,0,0,1-1.12-1.206V219.7a1.066,1.066,0,0,1,1.12-1.206H224.7c.688,0,.99.473.99,1.206Z"/><path class="cls-31" d="M235.376,238.907v8.871c0,.732.388,1.291,1.119,1.291h6.03c.731,0,1.2.087,1.2.819s-.474.9-1.2.9h-9.474a1.066,1.066,0,0,1-1.119-1.206V219.7c0-.733.3-1.206.99-1.206h8.741c.732,0,1.2.172,1.2.9s-.473.818-1.2.818h-5.3c-.688,0-.99.474-.99,1.206v15.76h5c.732,0,1.2.129,1.2.861s-.473.861-1.2.861Z"/><path class="cls-31" d="M253.419,250.792h-2.756a1.067,1.067,0,0,1-1.12-1.206V219.7c0-.733.3-1.206.991-1.206h4.306c7.106,0,10.378,5.9,10.378,14.942C265.218,244.376,259.835,250.792,253.419,250.792Zm1.335-30.573h-.775c-.689,0-.99.474-.99,1.206v26.353a1.065,1.065,0,0,0,1.119,1.205c3.962,0,7.363-5.382,7.363-15.63C261.471,225.343,260.18,220.219,254.754,220.219Z"/><path class="cls-31" d="M289.893,220.047c-2.756,0-6.071,5.813-6.071,15.933s3.143,12.875,5.6,12.875c2.369,0,3.531-2.154,3.962-4.178.172-.732.172-1.2.9-1.2s.819.473.819,1.2c0,1.981-2.111,6.546-6.8,6.546-3.746,0-8.439-3.532-8.439-15.029,0-11.755,5.21-18.128,9.688-18.128,4,0,4.908,2.326,4.908,7.062,0,.732-.086,1.206-.817,1.206s-.9-.474-.9-1.206C292.736,221.77,291.788,220.047,289.893,220.047Z"/><path class="cls-31" d="M315.731,249.586c0,.732-.3,1.206-.991,1.206h-1.334a1.067,1.067,0,0,1-1.12-1.206v-8.267h-8.181v8.267c0,.732-.3,1.206-.99,1.206H301.78a1.067,1.067,0,0,1-1.121-1.206v-8.267h-.043c-.731,0-1.2-.13-1.2-.861s.474-.862,1.2-.862h.043V219.7a1.066,1.066,0,0,1,1.121-1.206h1.335c.688,0,.99.473.99,1.206V239.6h8.181V219.7a1.066,1.066,0,0,1,1.12-1.206h1.334c.69,0,.991.473.991,1.206Z"/><path class="cls-31" d="M326.282,249.586c0,.732-.3,1.206-.99,1.206h-1.335a1.066,1.066,0,0,1-1.119-1.206V219.7a1.065,1.065,0,0,1,1.119-1.206h1.335c.689,0,.99.473.99,1.206Z"/><path class="cls-31" d="M342.129,220.047c-2.756,0-6.071,5.813-6.071,15.933s3.143,12.875,5.6,12.875c2.369,0,3.531-2.154,3.961-4.178.172-.732.172-1.2.9-1.2s.818.473.818,1.2c0,1.981-2.11,6.546-6.8,6.546-3.746,0-8.439-3.532-8.439-15.029,0-11.755,5.21-18.128,9.688-18.128,4,0,4.909,2.326,4.909,7.062,0,.732-.086,1.206-.818,1.206s-.9-.474-.9-1.206C344.972,221.77,344.025,220.047,342.129,220.047Z"/><path class="cls-31" d="M356.384,249.586c0,.732-.3,1.206-.99,1.206h-1.335a1.065,1.065,0,0,1-1.119-1.206V219.7a1.065,1.065,0,0,1,1.119-1.206h1.335c.688,0,.99.473.99,1.206Zm11.842-.344a2.456,2.456,0,0,1,.388.947c0,.345-.216.6-.69.6H366.03a1.5,1.5,0,0,1-1.464-.99L358.15,238.95a2.914,2.914,0,0,1-.647-1.593,4.166,4.166,0,0,1,.6-1.765l7.449-16.535c.172-.345.3-.56.775-.56h.732c.173,0,.387.086.387.258a1.324,1.324,0,0,1-.128.474L360.6,234.515a2.7,2.7,0,0,0-.345.99,1.288,1.288,0,0,0,.13.475Z"/><path class="cls-31" d="M376.581,238.907v8.871c0,.732.388,1.291,1.119,1.291h6.03c.731,0,1.2.087,1.2.819s-.474.9-1.2.9h-9.474a1.066,1.066,0,0,1-1.119-1.206V219.7c0-.733.3-1.206.99-1.206h8.741c.732,0,1.2.172,1.2.9s-.473.818-1.2.818h-5.3c-.689,0-.991.474-.991,1.206v15.76h5c.732,0,1.2.129,1.2.861s-.473.861-1.2.861Z"/><path class="cls-31" d="M408.49,249.586c0,.775-.387,1.206-1.076,1.206h-1.292c-.732,0-1.119-.6-1.378-1.206l-12.186-24.673v25.362c0,.345-.129.517-.431.517h-.947c-.3,0-.43-.172-.43-.517l.043-30.572a1.065,1.065,0,0,1,1.119-1.206h1.464c.69,0,.819.517,1.163,1.206l12.143,26.008v-26.7c0-.345.129-.517.431-.517h.947c.3,0,.43.172.43.517Z"/><path class="cls-31" d="M415.769,246.228a2.5,2.5,0,1,1-2.5,2.5A2.5,2.5,0,0,1,415.769,246.228Zm1.637-3.316c0,.344-.172.517-.56.517h-2.11c-.388,0-.56-.173-.56-.517l-.775-24.071c0-.344.172-.516.559-.516h3.66c.388,0,.561.172.561.516Z"/><path class="cls-18" d="M140.992,345.082V334.405h-3.8v-1.333H146.3v1.333h-3.817v10.677Z"/><path class="cls-18" d="M152.567,345.082v-1.225a4.251,4.251,0,0,1-3.1,1.44,2.445,2.445,0,0,1-2.772-2.772v-6.14h1.349v5.726c0,1.53.775,1.98,1.945,1.98a3.328,3.328,0,0,0,2.575-1.314v-6.392h1.35v8.7Z"/><path class="cls-18" d="M156.111,340.724a4.349,4.349,0,0,1,4.285-4.556c2.629,0,4.177,2.053,4.177,4.665v.341h-7.04a3.064,3.064,0,0,0,3.133,3.007,3.8,3.8,0,0,0,2.683-1.1l.648.882a4.721,4.721,0,0,1-3.457,1.332A4.311,4.311,0,0,1,156.111,340.724Zm4.267-3.438a2.9,2.9,0,0,0-2.845,2.9h5.708A2.818,2.818,0,0,0,160.378,337.286Z"/><path class="cls-18" d="M165.992,343.929l.7-.972a3.937,3.937,0,0,0,2.863,1.243c1.332,0,2.053-.631,2.053-1.5,0-.954-1.063-1.206-2.234-1.5-1.475-.341-3.15-.738-3.15-2.539,0-1.35,1.17-2.5,3.241-2.5a4.4,4.4,0,0,1,3.223,1.261l-.63.937a3.391,3.391,0,0,0-2.593-1.1c-1.188,0-1.927.6-1.927,1.368,0,.829.99,1.063,2.124,1.333,1.513.342,3.26.775,3.26,2.7,0,1.459-1.171,2.629-3.422,2.629A4.625,4.625,0,0,1,165.992,343.929Z"/><path class="cls-18" d="M181.421,345.082v-1.3a3.659,3.659,0,0,1-2.935,1.512c-2.269,0-3.871-1.728-3.871-4.554,0-2.774,1.584-4.575,3.871-4.575a3.636,3.636,0,0,1,2.935,1.532v-4.628h1.35v12.01Zm0-2.359V338.78a3.263,3.263,0,0,0-2.611-1.4c-1.746,0-2.791,1.44-2.791,3.367s1.045,3.348,2.791,3.348A3.236,3.236,0,0,0,181.421,342.723Z"/><path class="cls-18" d="M190.906,345.082v-.991a3.761,3.761,0,0,1-2.88,1.206,2.9,2.9,0,0,1-3.043-2.88,2.848,2.848,0,0,1,3.043-2.863,3.632,3.632,0,0,1,2.88,1.189v-1.568c0-1.17-.936-1.836-2.2-1.836a3.453,3.453,0,0,0-2.664,1.206l-.631-.936a4.556,4.556,0,0,1,3.476-1.441c1.836,0,3.366.83,3.366,2.936v5.978Zm0-1.837v-1.638a2.91,2.91,0,0,0-2.4-1.081,1.914,1.914,0,1,0,0,3.8A2.913,2.913,0,0,0,190.906,343.245Z"/><path class="cls-18" d="M194.684,347.26a2.071,2.071,0,0,0,.738.144,1.25,1.25,0,0,0,1.3-.918l.576-1.315-3.637-8.786h1.458l2.9,7.13,2.881-7.13h1.476l-4.357,10.461a2.586,2.586,0,0,1-2.557,1.765,4.44,4.44,0,0,1-.99-.126Z"/><path class="cls-18" d="M203.09,347.369l-.666-.559a2.688,2.688,0,0,0,1.171-1.675.806.806,0,0,1-.253.036.856.856,0,0,1-.864-.918.965.965,0,0,1,.955-.972,1.222,1.222,0,0,1,1.134,1.369A3.479,3.479,0,0,1,203.09,347.369Z"/><path class="cls-18" d="M220.085,345.082l-7-9.58v9.58h-1.495v-12.01h1.531l6.914,9.381v-9.381h1.5v12.01Z"/><path class="cls-18" d="M223.772,340.724a4.311,4.311,0,1,1,4.3,4.573A4.268,4.268,0,0,1,223.772,340.724Zm7.184,0c0-1.764-1.026-3.348-2.881-3.348s-2.9,1.584-2.9,3.348c0,1.782,1.045,3.367,2.9,3.367S230.956,342.506,230.956,340.724Z"/><path class="cls-18" d="M236.9,345.082l-3.619-8.7h1.458l2.9,7.13,2.881-7.13h1.476l-3.619,8.7Z"/><path class="cls-18" d="M242.888,340.724a4.35,4.35,0,0,1,4.285-4.556c2.629,0,4.177,2.053,4.177,4.665v.341h-7.04a3.065,3.065,0,0,0,3.133,3.007,3.8,3.8,0,0,0,2.683-1.1l.648.882a4.721,4.721,0,0,1-3.457,1.332A4.311,4.311,0,0,1,242.888,340.724Zm4.267-3.438a2.9,2.9,0,0,0-2.845,2.9h5.708A2.818,2.818,0,0,0,247.155,337.286Z"/><path class="cls-18" d="M264.023,345.082v-5.907c0-1.1-.487-1.8-1.6-1.8a3.042,3.042,0,0,0-2.305,1.332v6.374h-1.35v-5.907c0-1.1-.468-1.8-1.6-1.8a3.034,3.034,0,0,0-2.286,1.35v6.356h-1.35v-8.7h1.35v1.26a3.761,3.761,0,0,1,2.809-1.477,2.234,2.234,0,0,1,2.341,1.622,3.661,3.661,0,0,1,2.917-1.622c1.584,0,2.43.883,2.43,2.629v6.285Z"/><path class="cls-18" d="M268.07,345.082v-12.01h1.35V337.7a3.609,3.609,0,0,1,2.935-1.532c2.268,0,3.871,1.8,3.871,4.575,0,2.826-1.6,4.554-3.871,4.554a3.659,3.659,0,0,1-2.935-1.512v1.3Zm3.943-.991c1.765,0,2.809-1.423,2.809-3.348s-1.044-3.367-2.809-3.367a3.227,3.227,0,0,0-2.593,1.4v3.943A3.2,3.2,0,0,0,272.013,344.091Z"/><path class="cls-18" d="M277.915,340.724a4.35,4.35,0,0,1,4.285-4.556c2.629,0,4.178,2.053,4.178,4.665v.341h-7.04a3.064,3.064,0,0,0,3.133,3.007,3.8,3.8,0,0,0,2.683-1.1l.648.882a4.721,4.721,0,0,1-3.457,1.332A4.312,4.312,0,0,1,277.915,340.724Zm4.268-3.438a2.9,2.9,0,0,0-2.845,2.9h5.708A2.819,2.819,0,0,0,282.183,337.286Z"/><path class="cls-18" d="M288.554,345.082v-8.7h1.35v1.405a3.7,3.7,0,0,1,2.9-1.585v1.386a2.384,2.384,0,0,0-.54-.053,3.181,3.181,0,0,0-2.359,1.385v6.159Z"/><path class="cls-18" d="M298.759,345.082v-1.189c4.321-3.4,6.662-5.4,6.662-7.472a2.246,2.246,0,0,0-2.5-2.2,4.016,4.016,0,0,0-3.259,1.513l-.919-.954a5.2,5.2,0,0,1,4.178-1.891c2,0,4.033,1.134,4.033,3.529,0,2.449-2.484,4.681-5.834,7.329h5.888v1.332Z"/><path class="cls-18" d="M315.591,345.082v-5.69c0-1.53-.774-2.016-1.945-2.016a3.352,3.352,0,0,0-2.574,1.35v6.356h-1.351v-8.7h1.351v1.26a4.313,4.313,0,0,1,3.1-1.477,2.472,2.472,0,0,1,2.773,2.81v6.1Z"/><path class="cls-18" d="M325.941,345.082v-1.3a3.659,3.659,0,0,1-2.935,1.512c-2.268,0-3.871-1.728-3.871-4.554,0-2.774,1.584-4.575,3.871-4.575a3.636,3.636,0,0,1,2.935,1.532v-4.628h1.35v12.01Zm0-2.359V338.78a3.265,3.265,0,0,0-2.611-1.4c-1.747,0-2.791,1.44-2.791,3.367s1.044,3.348,2.791,3.348A3.237,3.237,0,0,0,325.941,342.723Z"/><path class="cls-18" d="M340.071,345.082v-.991a3.764,3.764,0,0,1-2.881,1.206,2.9,2.9,0,0,1-3.043-2.88,2.848,2.848,0,0,1,3.043-2.863,3.636,3.636,0,0,1,2.881,1.189v-1.568c0-1.17-.937-1.836-2.2-1.836a3.453,3.453,0,0,0-2.664,1.206l-.631-.936a4.556,4.556,0,0,1,3.476-1.441c1.836,0,3.366.83,3.366,2.936v5.978Zm0-1.837v-1.638a2.913,2.913,0,0,0-2.4-1.081,1.914,1.914,0,1,0,0,3.8A2.916,2.916,0,0,0,340.071,343.245Z"/><path class="cls-18" d="M344.389,343.263v-5.689h-1.441v-1.189h1.441v-2.377h1.35v2.377H347.5v1.189h-1.764v5.4c0,.649.288,1.116.882,1.116a1.3,1.3,0,0,0,.918-.36l.4,1.009a2.209,2.209,0,0,1-1.621.557A1.778,1.778,0,0,1,344.389,343.263Z"/><path class="cls-18" d="M354.883,345.082l4.843-10.677h-6.464v-1.333h8.192V334.1l-4.915,10.984Z"/><path class="cls-18" d="M363.378,345.082v-12.01H368.2a3.622,3.622,0,1,1,0,7.238h-3.331v4.772Zm7.04-8.391a2.23,2.23,0,0,0-2.394-2.286h-3.152v4.573h3.152A2.231,2.231,0,0,0,370.418,336.691Z"/><path class="cls-18" d="M384.206,345.082V335.2l-4.087,9.885h-.612l-4.069-9.885v9.885h-1.494v-12.01h2.142l3.728,9.039,3.745-9.039H385.7v12.01Z"/><path class="cls-18" d="M152.346,389.036l-1.015-2.548h-5.715l-1.015,2.548h-1.635l4.612-11.481h1.774l4.63,11.481Zm-3.872-10-2.444,6.178H150.9Z"/><path class="cls-18" d="M157.307,389.036l-3.459-8.314h1.393l2.772,6.817,2.754-6.817h1.411l-3.46,8.314Z"/><path class="cls-18" d="M162.112,388.261a.946.946,0,1,1,.946.947A.955.955,0,0,1,162.112,388.261Z"/><path class="cls-18" d="M170.359,383.3a5.7,5.7,0,1,1,5.7,5.938A5.6,5.6,0,0,1,170.359,383.3Zm9.914,0c0-2.685-1.653-4.664-4.217-4.664-2.582,0-4.217,1.979-4.217,4.664,0,2.668,1.635,4.664,4.217,4.664C178.62,387.968,180.273,385.972,180.273,383.3Zm-4.2-6.713h-.981l2.547-2.478h1.343Z"/><path class="cls-18" d="M183.22,387.934l.671-.93a3.766,3.766,0,0,0,2.737,1.188c1.274,0,1.962-.6,1.962-1.429,0-.912-1.016-1.152-2.135-1.428-1.411-.327-3.011-.706-3.011-2.427,0-1.29,1.119-2.392,3.1-2.392a4.206,4.206,0,0,1,3.081,1.2l-.6.9a3.236,3.236,0,0,0-2.479-1.05c-1.135,0-1.841.567-1.841,1.308,0,.792.947,1.015,2.031,1.274,1.446.326,3.115.739,3.115,2.581,0,1.4-1.118,2.513-3.27,2.513A4.417,4.417,0,0,1,183.22,387.934Z"/><path class="cls-18" d="M191.467,384.871a4.107,4.107,0,0,1,4.148-4.355,3.556,3.556,0,0,1,3.046,1.445l-.86.792a2.466,2.466,0,0,0-2.117-1.084,3.23,3.23,0,0,0,0,6.42A2.506,2.506,0,0,0,197.8,387l.86.792a3.554,3.554,0,0,1-3.046,1.446A4.112,4.112,0,0,1,191.467,384.871Z"/><path class="cls-18" d="M205.669,389.036v-.947a3.6,3.6,0,0,1-2.754,1.153,2.768,2.768,0,0,1-2.908-2.754,2.722,2.722,0,0,1,2.908-2.736,3.475,3.475,0,0,1,2.754,1.135v-1.5c0-1.119-.894-1.756-2.1-1.756a3.3,3.3,0,0,0-2.547,1.154l-.6-.9a4.349,4.349,0,0,1,3.321-1.377c1.756,0,3.219.791,3.219,2.806v5.714Zm0-1.756v-1.567a2.785,2.785,0,0,0-2.289-1.032,1.829,1.829,0,1,0,0,3.632A2.785,2.785,0,0,0,205.669,387.28Z"/><path class="cls-18" d="M209.545,389.036v-8.314h1.29v1.343a3.536,3.536,0,0,1,2.772-1.515v1.326a2.251,2.251,0,0,0-.517-.052,3.044,3.044,0,0,0-2.255,1.325v5.887Z"/><path class="cls-18" d="M229.531,389.036v-9.45l-3.908,9.45h-.585l-3.889-9.45v9.45H219.72V377.555h2.048l3.563,8.641,3.58-8.641h2.048v11.481Z"/><path class="cls-18" d="M233.115,384.871a4.122,4.122,0,1,1,4.114,4.371A4.079,4.079,0,0,1,233.115,384.871Zm6.868,0c0-1.688-.981-3.2-2.754-3.2s-2.771,1.514-2.771,3.2c0,1.7,1,3.218,2.771,3.218S239.983,386.575,239.983,384.871Z"/><path class="cls-18" d="M249.057,389.036V383.6c0-1.464-.74-1.928-1.859-1.928a3.208,3.208,0,0,0-2.461,1.291v6.076h-1.291v-8.314h1.291v1.205a4.122,4.122,0,0,1,2.96-1.411,2.363,2.363,0,0,1,2.651,2.685v5.835Z"/><path class="cls-18" d="M253.19,387.3v-5.439h-1.377v-1.136h1.377v-2.271h1.291v2.271h1.687v1.136h-1.687v5.164c0,.619.275,1.067.843,1.067a1.244,1.244,0,0,0,.878-.344l.379.964a2.115,2.115,0,0,1-1.55.533A1.7,1.7,0,0,1,253.19,387.3Z"/><path class="cls-18" d="M257.512,384.871a4.157,4.157,0,0,1,4.1-4.355c2.512,0,3.993,1.962,3.993,4.458v.326h-6.731a2.93,2.93,0,0,0,3,2.875,3.635,3.635,0,0,0,2.565-1.049l.62.842a4.517,4.517,0,0,1-3.305,1.274A4.122,4.122,0,0,1,257.512,384.871Zm4.079-3.288a2.776,2.776,0,0,0-2.72,2.771h5.457A2.694,2.694,0,0,0,261.591,381.583Z"/><path class="cls-18" d="M267.463,378.674a.87.87,0,1,1,1.739,0,.87.87,0,0,1-1.739,0Zm.225,10.362v-8.314h1.29v8.314Z"/><path class="cls-18" d="M271.561,389.036v-8.314h1.291v1.343a3.533,3.533,0,0,1,2.771-1.515v1.326a2.242,2.242,0,0,0-.516-.052,3.042,3.042,0,0,0-2.255,1.325v5.887Z"/><path class="cls-18" d="M276.761,384.871a4.121,4.121,0,1,1,4.113,4.371A4.078,4.078,0,0,1,276.761,384.871Zm6.867,0c0-1.688-.981-3.2-2.754-3.2s-2.771,1.514-2.771,3.2c0,1.7,1,3.218,2.771,3.218S283.628,386.575,283.628,384.871Z"/><path class="cls-18" d="M294.424,389.036V378.829h-3.632v-1.274H299.5v1.274h-3.648v10.207Z"/><path class="cls-18" d="M298.885,384.871A4.121,4.121,0,1,1,303,389.242,4.078,4.078,0,0,1,298.885,384.871Zm6.867,0c0-1.688-.981-3.2-2.754-3.2s-2.771,1.514-2.771,3.2c0,1.7,1,3.218,2.771,3.218S305.752,386.575,305.752,384.871Z"/><path class="cls-18" d="M309.215,389.036v-8.314h1.29v1.343a3.536,3.536,0,0,1,2.772-1.515v1.326a2.251,2.251,0,0,0-.517-.052,3.044,3.044,0,0,0-2.255,1.325v5.887Z"/><path class="cls-18" d="M314.9,389.036v-8.314h1.29v1.343a3.536,3.536,0,0,1,2.771-1.515v1.326a2.236,2.236,0,0,0-.516-.052,3.044,3.044,0,0,0-2.255,1.325v5.887Z"/><path class="cls-18" d="M320.1,384.871a4.157,4.157,0,0,1,4.1-4.355c2.512,0,3.993,1.962,3.993,4.458v.326h-6.731a2.93,2.93,0,0,0,3,2.875,3.635,3.635,0,0,0,2.565-1.049l.62.842a4.517,4.517,0,0,1-3.305,1.274A4.122,4.122,0,0,1,320.1,384.871Zm4.079-3.288a2.776,2.776,0,0,0-2.72,2.771h5.457A2.694,2.694,0,0,0,324.175,381.583Z"/><path class="cls-18" d="M329.548,387.934l.671-.93a3.767,3.767,0,0,0,2.737,1.188c1.274,0,1.962-.6,1.962-1.429,0-.912-1.015-1.152-2.135-1.428-1.411-.327-3.011-.706-3.011-2.427,0-1.29,1.119-2.392,3.1-2.392a4.2,4.2,0,0,1,3.081,1.2l-.6.9a3.236,3.236,0,0,0-2.479-1.05c-1.135,0-1.84.567-1.84,1.308,0,.792.946,1.015,2.03,1.274,1.446.326,3.115.739,3.115,2.581,0,1.4-1.118,2.513-3.269,2.513A4.417,4.417,0,0,1,329.548,387.934Z"/><path class="cls-18" d="M341.927,387.349l.844-.895a3.987,3.987,0,0,0,3.2,1.514c1.67,0,2.685-.826,2.685-2.151,0-1.429-1.17-2.031-2.857-2.031-.482,0-1.016,0-1.187.017V382.5c.189.016.722.016,1.187.016,1.445,0,2.668-.567,2.668-1.893,0-1.274-1.171-1.962-2.564-1.962a3.89,3.89,0,0,0-3.03,1.394l-.792-.895a4.975,4.975,0,0,1,3.924-1.773c2.2,0,3.891,1.119,3.891,3.064a2.8,2.8,0,0,1-2.479,2.668,2.887,2.887,0,0,1,2.651,2.822c0,1.911-1.533,3.305-4.063,3.305A4.845,4.845,0,0,1,341.927,387.349Z"/><path class="cls-18" d="M352.154,387.4l.877-.947a3.779,3.779,0,0,0,3.167,1.514,2.478,2.478,0,0,0,2.652-2.461,2.42,2.42,0,0,0-2.634-2.478,3.6,3.6,0,0,0-2.65,1.084l-1.05-.361v-6.2h7.022v1.274h-5.594v3.993a3.88,3.88,0,0,1,2.685-1.032,3.517,3.517,0,0,1,3.649,3.666,3.76,3.76,0,0,1-4.08,3.786A4.687,4.687,0,0,1,352.154,387.4Z"/><path class="cls-18" d="M375.154,389.036l-1.016-2.548h-5.714l-1.016,2.548h-1.634l4.612-11.481h1.773l4.63,11.481Zm-3.873-10-2.444,6.178h4.871Z"/><path class="cls-18" d="M378.566,391.221l-.637-.533a2.56,2.56,0,0,0,1.118-1.6.764.764,0,0,1-.241.035.819.819,0,0,1-.826-.878.923.923,0,0,1,.913-.93,1.169,1.169,0,0,1,1.084,1.309A3.322,3.322,0,0,1,378.566,391.221Z"/><path class="cls-18" d="M203.586,418.94v-9.587l-1.841,1.945-.861-.878,2.875-2.96h1.256v11.48Z"/><path class="cls-18" d="M207.238,413.209c0-2.806,1.239-5.921,4.388-5.921,3.133,0,4.389,3.115,4.389,5.921,0,2.788-1.256,5.937-4.389,5.937C208.477,419.146,207.238,416,207.238,413.209Zm7.314,0c0-2.29-.74-4.648-2.926-4.648s-2.926,2.358-2.926,4.648.741,4.664,2.926,4.664S214.552,415.5,214.552,413.209Z"/><path class="cls-18" d="M217.775,413.209c0-2.806,1.239-5.921,4.388-5.921,3.133,0,4.389,3.115,4.389,5.921,0,2.788-1.256,5.937-4.389,5.937C219.014,419.146,217.775,416,217.775,413.209Zm7.314,0c0-2.29-.74-4.648-2.926-4.648s-2.925,2.358-2.925,4.648.74,4.664,2.925,4.664S225.089,415.5,225.089,413.209Z"/><path class="cls-18" d="M228.312,413.209c0-2.806,1.239-5.921,4.388-5.921,3.133,0,4.389,3.115,4.389,5.921,0,2.788-1.256,5.937-4.389,5.937C229.551,419.146,228.312,416,228.312,413.209Zm7.314,0c0-2.29-.74-4.648-2.926-4.648s-2.925,2.358-2.925,4.648.74,4.664,2.925,4.664S235.626,415.5,235.626,413.209Z"/><path class="cls-18" d="M238.487,415.342v-1.135h4.13v1.135Z"/><path class="cls-18" d="M244.065,418.94V417.8c4.131-3.253,6.369-5.164,6.369-7.143a2.147,2.147,0,0,0-2.393-2.1,3.836,3.836,0,0,0-3.115,1.446l-.878-.912a4.973,4.973,0,0,1,3.993-1.807c1.91,0,3.856,1.084,3.856,3.373,0,2.341-2.375,4.475-5.577,7.006h5.628v1.273Z"/><path class="cls-18" d="M256.323,418.94v-9.587l-1.841,1.945-.862-.878,2.875-2.96h1.256v11.48Z"/><path class="cls-18" d="M259.974,413.226c0-3.116,1.446-5.938,4.664-5.938a3.994,3.994,0,0,1,3.185,1.377l-.723,1.067a2.942,2.942,0,0,0-2.462-1.171c-2.22,0-3.235,2.255-3.235,4.51a3.93,3.93,0,0,0,.017.447,4.124,4.124,0,0,1,3.253-1.79,3.471,3.471,0,0,1,3.752,3.666,3.768,3.768,0,0,1-4.027,3.752C261.2,419.146,259.974,416.341,259.974,413.226Zm7,2.22a2.377,2.377,0,0,0-2.651-2.479,3.529,3.529,0,0,0-2.874,1.722c.138,1.428.895,3.184,2.892,3.184A2.483,2.483,0,0,0,266.979,415.446Z"/><path class="cls-18" d="M275.056,418.94V407.46h1.429v10.207h5.336v1.273Z"/><path class="cls-18" d="M283.561,408.579a.87.87,0,1,1,1.739,0,.87.87,0,0,1-1.739,0Zm.224,10.361v-8.313h1.29v8.313Z"/><path class="cls-18" d="M286.936,417.838l.671-.929a3.767,3.767,0,0,0,2.737,1.187c1.273,0,1.962-.6,1.962-1.428,0-.913-1.016-1.153-2.135-1.428-1.411-.327-3.012-.706-3.012-2.428,0-1.29,1.12-2.392,3.1-2.392a4.207,4.207,0,0,1,3.081,1.2l-.6.895a3.241,3.241,0,0,0-2.479-1.05c-1.136,0-1.841.568-1.841,1.308,0,.792.947,1.015,2.031,1.274,1.446.326,3.115.74,3.115,2.581,0,1.4-1.118,2.513-3.27,2.513A4.417,4.417,0,0,1,286.936,417.838Z"/><path class="cls-18" d="M295.665,418.94V407.46h1.29v4.423a3.454,3.454,0,0,1,2.806-1.463c2.169,0,3.7,1.721,3.7,4.372,0,2.7-1.532,4.354-3.7,4.354a3.5,3.5,0,0,1-2.806-1.445v1.239Zm3.769-.946c1.687,0,2.685-1.361,2.685-3.2s-1-3.218-2.685-3.218a3.091,3.091,0,0,0-2.479,1.342v3.769A3.064,3.064,0,0,0,299.434,417.994Z"/><path class="cls-18" d="M305.083,414.775a4.121,4.121,0,1,1,4.114,4.371A4.079,4.079,0,0,1,305.083,414.775Zm6.867,0c0-1.688-.981-3.2-2.753-3.2s-2.772,1.513-2.772,3.2c0,1.7,1,3.219,2.772,3.219S311.95,416.479,311.95,414.775Z"/><path class="cls-18" d="M320.611,418.94v-.946a3.6,3.6,0,0,1-2.754,1.152,2.768,2.768,0,0,1-2.909-2.754,2.723,2.723,0,0,1,2.909-2.736,3.474,3.474,0,0,1,2.754,1.136v-1.5c0-1.119-.895-1.755-2.1-1.755a3.3,3.3,0,0,0-2.547,1.153l-.6-.895a4.35,4.35,0,0,1,3.321-1.377c1.756,0,3.219.791,3.219,2.806v5.714Zm0-1.756v-1.566a2.782,2.782,0,0,0-2.289-1.033,1.829,1.829,0,1,0,0,3.632A2.782,2.782,0,0,0,320.611,417.184Z"/><path class="cls-11" d="M357.147,763.515c7.487-.857,28.722,6.818,34.791,35.647,10.717,50.9-24.662,68.895-24.662,68.895s-3.67,6.77-10.863,9.512-12.331,1.114-12.331,1.114-4.624,6.6-14.68,5.4-12.184-6.426-12.184-6.426-6.459,2.742-15.194-2.485-9.395-8.655-9.395-8.655-5.579.514-14.313-9-13.063-23.05-13.981-37.361,6.861-38.3,16.623-46.444,18.5-6.341,18.5-6.341a21.42,21.42,0,0,1,5.688-3.385,26.619,26.619,0,0,1,6.973-1.457,20.672,20.672,0,0,1,12.368-5.784,29.116,29.116,0,0,1,13.946,2.142,21.344,21.344,0,0,1,8.074-.428A17.942,17.942,0,0,1,357.147,763.515Z"/><path class="cls-34" d="M357.1,763.607a30.269,30.269,0,0,0-9.978,4.615,20.494,20.494,0,0,0-4.968,6.792"/><path class="cls-34" d="M378.084,801.982a58.334,58.334,0,0,0-12.044-21.733,26.54,26.54,0,0,0-4.1-3.849,18.463,18.463,0,0,0-11.912-3.338c-4.791.256-9.79,2.348-12.575,6.906"/><path class="cls-34" d="M353.082,805.844c-1.894-5.714-4.02-11.4-7.162-16.3s-7.407-9.031-12.456-10.7a14.112,14.112,0,0,0-14.732,3.616c-6.457,6.827-11.546,18.709-13.111,27.531"/><path class="cls-34" d="M311.006,775.8a25.942,25.942,0,0,0-4.917-5.579,12.514,12.514,0,0,0-6.343-2.882"/><path class="cls-34" d="M319.643,781.13a14.107,14.107,0,0,0-13.591-4.986c-13.937,2.738-21.061,19.613-22.549,23.186"/><path class="cls-9" d="M326.086,746.451a1.5,1.5,0,0,0,.314.662,2.85,2.85,0,0,0,.829.517,2.8,2.8,0,0,1,1.2,1.417,8.282,8.282,0,0,0,.471,1.234,4.272,4.272,0,0,0,.782.833,6.746,6.746,0,0,1,1.567,3.351,7.786,7.786,0,0,1,2.77,3.041,13.1,13.1,0,0,0,1.4,2.578,13.586,13.586,0,0,0,1.188,1.08c1.556,1.43,2.375,3.667,3.6,5.478a11.1,11.1,0,0,0,3.982,3.616,9.179,9.179,0,0,1-3.026,5.433c-1.427,1.4-3.007,2.758-3.765,4.747a17.22,17.22,0,0,0-18.13,1.17,5.427,5.427,0,0,0-2.64-3.213,19.913,19.913,0,0,0-6.088-2.64,6.341,6.341,0,0,0-1.592-2.768,29.339,29.339,0,0,0,10.958-6.022c2.062-1.78,4.054-4.129,4.33-7.106.464-5-4.033-9.119-3.918-14.146.085-3.725,2.573-6.605,5.366-8.409a48.337,48.337,0,0,0-1.562,5.617C324.171,743.646,326.086,746.451,326.086,746.451Z"/><path class="cls-35" d="M340.6,776.175a17.814,17.814,0,0,1-5-12.722c.017-1.44.088-3.166-.923-3.99"/><path class="cls-35" d="M330.859,754.418a24.832,24.832,0,0,1,1.44,11.592,59.523,59.523,0,0,1-2.474,11.482"/><path class="cls-35" d="M328.669,749.452c.52,11.006-3.172,22.192-9.883,29.946"/><path class="cls-35" d="M326.034,746.887a18.754,18.754,0,0,1-1.9,14.24"/><line class="cls-36" x1="143.184" y1="361.507" x2="380.535" y2="361.507"/></g></svg>